<?xml version="1.0" encoding="UTF-8"?>
<svg width="16px" height="16px" viewBox="0 0 16 16" version="1.1" xmlns="http://www.w3.org/2000/svg" xmlns:xlink="http://www.w3.org/1999/xlink">
    <title>icon/comment_bottom</title>
    <g id="icon/comment_bottom" stroke="none" stroke-width="1" fill="none" fill-rule="evenodd">
        <rect id="Rectangle" x="0" y="0" width="16" height="16"></rect>
        <path d="M4.81879195,13 C5.59731544,13 6.16778523,12.789272 6.53020134,12.3678161 C6.89261745,11.9463602 7.0738255,11.4546616 7.0738255,10.8927203 C7.0738255,10.0242656 6.59060403,9.41123883 5.62416107,9.05363985 C5.08724832,8.90038314 4.81879195,8.60664112 4.81879195,8.17241379 C4.81879195,7.15070243 5.81208054,5.97573436 7.79865772,4.64750958 L7.79865772,4.64750958 L7.51677852,3 C7.27516779,3 6.87248322,3.21072797 6.30872483,3.63218391 C5.74496644,4.05363985 5.10067114,4.62196679 4.37583893,5.33716475 C3.62416107,6.10344828 3.04026846,6.8633461 2.62416107,7.61685824 C2.20805369,8.37037037 2,9.10472542 2,9.81992337 C2,10.7650064 2.2885906,11.5312899 2.86577181,12.1187739 C3.44295302,12.706258 4.09395973,13 4.81879195,13 Z" id="Path" fill="#3E3E3E" fill-rule="nonzero" opacity="0.872646973" transform="translate(4.899329, 8.000000) rotate(-180.000000) translate(-4.899329, -8.000000) "></path>
        <path d="M11.0604027,13 C11.8389262,13 12.4026846,12.789272 12.7516779,12.3678161 C13.1006711,11.9463602 13.2751678,11.4546616 13.2751678,10.8927203 C13.2751678,10.0242656 12.8053691,9.41123883 11.8657718,9.05363985 C11.3288591,8.90038314 11.0604027,8.60664112 11.0604027,8.17241379 C11.0604027,7.12515964 12.0402685,5.95019157 14,4.64750958 L14,4.64750958 L13.7181208,3 C13.4765101,3 13.0738255,3.21072797 12.5100671,3.63218391 C11.9463087,4.05363985 11.3154362,4.62196679 10.6174497,5.33716475 C9.83892617,6.10344828 9.24161074,6.8633461 8.82550336,7.61685824 C8.40939597,8.37037037 8.20134228,9.10472542 8.20134228,9.81992337 C8.20134228,10.7650064 8.48993289,11.5312899 9.06711409,12.1187739 C9.6442953,12.706258 10.3087248,13 11.0604027,13 Z" id="Path" fill="#3E3E3E" fill-rule="nonzero" opacity="0.872646973" transform="translate(11.100671, 8.000000) rotate(-180.000000) translate(-11.100671, -8.000000) "></path>
    </g>
</svg>