<?xml version="1.0" encoding="UTF-8"?>
<svg width="24px" height="24px" viewBox="0 0 24 24" version="1.1" xmlns="http://www.w3.org/2000/svg" xmlns:xlink="http://www.w3.org/1999/xlink">
    <title>btn_calendar</title>
    <g id="btn_calendar" stroke="none" stroke-width="1" fill="none" fill-rule="evenodd">
        <rect id="Rectangle" x="0" y="0" width="24" height="24"></rect>
        <path d="M12,4 L12.0046462,5.75 L16,5.75 L16,5.0023303 L16.0046462,5.75 L18,5.75 C18.345178,5.75 18.657678,5.88991102 18.8838835,6.11611652 C19.110089,6.34232203 19.25,6.65482203 19.25,7 L19.25,7 L19.25,19 C19.25,19.345178 19.110089,19.657678 18.8838835,19.8838835 C18.657678,20.110089 18.345178,20.25 18,20.25 L18,20.25 L6,20.25 C5.65482203,20.25 5.34232203,20.110089 5.11611652,19.8838835 C4.88991102,19.657678 4.75,19.345178 4.75,19 L4.75,19 L4.75,7 C4.75,6.65482203 4.88991102,6.34232203 5.11611652,6.11611652 C5.34232203,5.88991102 5.65482203,5.75 6,5.75 L6,5.75 L8,5.75 L8,4 L8.00464616,5.75 L12,5.75 L12,4 Z" id="Combined-Shape" stroke="#286EF1" stroke-width="1.5" fill="#286EF1"></path>
        <polyline id="Path-9" stroke="#FFFFFF" stroke-width="1.5" stroke-linecap="round" stroke-linejoin="round" points="9 12.7142857 11.1818182 15 15 11"></polyline>
    </g>
</svg>