<?xml version="1.0" encoding="UTF-8"?>
<svg width="24px" height="24px" viewBox="0 0 24 24" version="1.1" xmlns="http://www.w3.org/2000/svg" xmlns:xlink="http://www.w3.org/1999/xlink">
    <title>btn_bottombar_3_on</title>
    <g id="btn_bottombar_3_on" stroke="none" stroke-width="1" fill="none" fill-rule="evenodd">
        <rect id="Rectangle" x="0" y="0" width="24" height="24"></rect>
        <path d="M20.5882353,22 L3.41176471,22 C2.63176471,22 2,21.4945882 2,20.8705882 L2,7.12941176 C2,6.50541176 2.63176471,6 3.41176471,6 L20.5882353,6 C21.3682353,6 22,6.50541176 22,7.12941176 L22,20.8705882 C22,21.4945882 21.3682353,22 20.5882353,22 Z" id="Stroke-1" stroke="#286EF1" stroke-width="2" stroke-linejoin="round"></path>
        <path d="M16.5,8.7 C16.5,8.55685425 16.5,7.65685425 16.5,6 C16.5,3.51471863 14.4852814,1.5 12,1.5 C9.51471863,1.5 7.5,3.51471863 7.5,6 L7.5,8.7" id="Path" stroke="#286EF1" stroke-width="2" stroke-linecap="round"></path>
    </g>
</svg>