<?xml version="1.0" encoding="UTF-8"?>
<svg width="24px" height="24px" viewBox="0 0 24 24" version="1.1" xmlns="http://www.w3.org/2000/svg" xmlns:xlink="http://www.w3.org/1999/xlink">
    <title>btn_heart_off</title>
    <g id="btn_heart_off" stroke="none" stroke-width="1" fill="none" fill-rule="evenodd">
        <rect id="Rectangle" x="0" y="0" width="24" height="24"></rect>
        <path d="M8.23929294,3.34990479 C8.23929294,3.34990479 8.23929294,3.34990479 8.23929294,3.34990479 C10.0480436,3.81644452 11.3016126,4.92406195 12,6.67275709 C12.4868678,4.92406195 13.7404369,3.81644452 15.7607071,3.34990479 C15.7607071,3.34990479 15.7607071,3.34990479 15.7607071,3.34990479 C18.4990182,2.71754834 21.2314841,4.42476189 21.8638405,7.16307298 C21.9717255,7.63025025 22.0130416,8.11033064 21.9865632,8.58907134 C21.9118412,9.93969331 21.5261558,11.2439386 20.8294861,12.501806 C19.268801,15.319691 16.3256389,18.1524223 12,21 C7.67436106,18.1524223 4.73119902,15.319691 3.17051386,12.501806 C2.42241534,11.1510816 2.03291022,9.74687922 2.0019985,8.28919897 L2.00203588,8.28919817 C1.94358765,5.53299977 4.13054628,3.25127785 6.88674468,3.19282963 C7.34265238,3.1831616 7.79773475,3.23601157 8.23929294,3.34990479 Z" id="Rectangle" stroke="#CCCCCC" stroke-linejoin="round"></path>
    </g>
</svg>