<?xml version="1.0" encoding="UTF-8"?>
<svg width="24px" height="24px" viewBox="0 0 24 24" version="1.1" xmlns="http://www.w3.org/2000/svg" xmlns:xlink="http://www.w3.org/1999/xlink">
    <title>btn_bottombar_4_off</title>
    <g id="btn_bottombar_4_off" stroke="none" stroke-width="1" fill="none" fill-rule="evenodd">
        <rect id="guide" x="0" y="0" width="24" height="24"></rect>
        <path d="M20.5882353,22 L3.41176471,22 C2.63176471,22 2,21.3682353 2,20.5882353 L2,3.41176471 C2,2.63176471 2.63176471,2 3.41176471,2 L20.5882353,2 C21.3682353,2 22,2.63176471 22,3.41176471 L22,20.5882353 C22,21.3682353 21.3682353,22 20.5882353,22 Z" id="Stroke-1" stroke="#212121" stroke-width="2" stroke-linejoin="round"></path>
        <path d="M8.86202812,14.1076158 C6.93303668,14.0066768 5.4,12.4106038 5.4,10.4564788 C5.4,8.43721632 7.0369425,6.80027382 9.056205,6.80027382 C10.2259079,6.80027382 11.2673139,7.34954209 11.9365699,8.20421912 C12.6331967,7.3141385 13.7337607,6.75513724 14.9625461,6.80282869 C16.8138349,6.87464869 18.3365674,8.35151494 18.4643449,10.1997999 C18.5535799,11.4911087 17.9624824,12.6369887 17.0329061,13.3630187 C16.3045811,13.9318074 14.1455936,15.6709449 14.1455936,15.6709449 L17.8231961,15.6709449 C18.2516861,15.6709449 18.5990411,16.0182999 18.5990411,16.4468237 C18.5990411,16.8753137 18.2516861,17.2227024 17.8231961,17.2227024 L12.3809749,17.2227024 C11.8656461,17.2227024 11.4479224,16.8049449 11.4479224,16.2896162 C11.4479224,16.0059474 11.5764761,15.7380399 11.7980786,15.5609874 C12.8053811,14.7562524 15.6657611,12.4709387 16.0942511,12.1271949 C16.6689461,11.6661362 16.9214636,11.1365987 16.9214636,10.4561987 C16.9214636,9.29580619 15.9774086,8.35175119 14.8169824,8.35175119 C13.6565561,8.35175119 12.7125011,9.29580619 12.7125011,10.4561987 L12.7124438,10.4581663 L12.707224,10.6522643 C12.6054821,12.5804972 11.0097748,14.1126804 9.056205,14.1126804 L9.056205,14.1126804 Z M11.1606863,10.4564788 C11.1606863,9.29605257 10.2166313,8.35199757 9.056205,8.35199757 C7.8958125,8.35199757 6.95172375,9.29605257 6.95172375,10.4564788 C6.95172375,11.6169051 7.8958125,12.5609601 9.056205,12.5609601 C10.2160575,12.5609567 11.1597412,11.6178129 11.1606525,10.4581629 L11.1606525,10.4581629 Z" id="Combined-Shape" fill="#212121"></path>
    </g>
</svg>