<?xml version="1.0" encoding="UTF-8"?>
<svg width="28px" height="28px" viewBox="0 0 28 28" version="1.1" xmlns="http://www.w3.org/2000/svg" xmlns:xlink="http://www.w3.org/1999/xlink">
    <title>icon_bank_9</title>
    <defs>
        <polygon id="path-1" points="0 0 5 0 5 5 0 5"></polygon>
        <polygon id="path-3" points="0 0 9 0 9 8 0 8"></polygon>
    </defs>
    <g id="Page-1" stroke="none" stroke-width="1" fill="none" fill-rule="evenodd">
        <g id="02-7-Dropdown-Box4" transform="translate(-1512.000000, -790.000000)">
            <g id="03-Contents" transform="translate(600.000000, 196.000000)">
                <g id="img" transform="translate(888.000000, 44.000000)">
                    <g id="Group-3" transform="translate(0.000000, 1.000000)">
                        <g id="Group-5" transform="translate(0.000000, 240.000000)">
                            <g id="icon_bank_9" transform="translate(24.000000, 309.000000)">
                                <circle id="logo" stroke="#DDDDDD" fill="#FFFFFF" cx="14" cy="14" r="13.5"></circle>
                                <g id="Group-17" transform="translate(10.000000, 7.000000)">
                                    <path d="M2.44786075,13.6090949 C2.12017302,13.8530826 1.82521236,14 1.51295013,14 C0.708530929,14 0.0385637605,13.170704 0,12.1740271 L1.56527177,11 L4,12.3702667 L2.44786075,13.6090949 Z" id="Fill-1" fill="#82B9D8"></path>
                                    <path d="M3.42313052,9 L2.12540641,8.51531265 C1.54784022,8.29650419 1,8.11275234 1,7.57311669 C1,7.29207287 1.09986066,7.14593796 1.25777984,7 L4,8.02432299 L3.32187645,8.35736091 C3.13260567,8.45465288 3.00348351,8.53973412 3.00348351,8.66322009 C3.00348351,8.79497784 3.18114259,8.90704087 3.42313052,9" id="Fill-3" fill="#B1D6A0"></path>
                                    <g id="Group-7" transform="translate(1.000000, 0.000000)">
                                        <mask id="mask-2" fill="white">
                                            <use xlink:href="#path-1"></use>
                                        </mask>
                                        <g id="Clip-6"></g>
                                        <path d="M3.95923177,3.20303826 L2.52557417,4.07943878 C2.3964497,4.15665691 2.22645672,4.28081155 2.22645672,4.47284748 C2.22645672,4.69213687 2.55942232,4.85944282 2.85302377,5 L1.05731622,4.20409811 C0.529284926,3.96865852 0,3.70344201 0,3.06222873 C0,2.79171293 0.0777254037,2.57368527 0.202336777,2.38593923 L4.08359242,-3.63797881e-12 C4.55019557,0.264459473 5,0.801453518 5,1.52139901 C5,2.29156152 4.6133788,2.80761078 3.95923177,3.20303826" id="Fill-5" fill="#82B9D8" mask="url(#mask-2)"></path>
                                    </g>
                                    <path d="M8.04197531,5.82039123 L7.71604938,6 L5,4.83898933 L8.15612977,3 C8.58151019,3.23895969 9,3.70665382 9,4.34017487 C9,5.01904268 8.65546942,5.4869591 8.04197531,5.82039123" id="Fill-8" fill="#B1D6A0"></path>
                                    <path d="M5.61687371,8 L7.21667556,8.61335992 C7.81640119,8.84646062 8,9.1218345 8,9.46899302 C8,9.66580259 7.87287554,9.86440678 7.68950537,10 L5,8.95932203 L5.45408124,8.73579262 C5.84048472,8.55154536 5.96760918,8.43888335 5.96760918,8.31605184 C5.96760918,8.18803589 5.8782105,8.10348953 5.61687371,8" id="Fill-10" fill="#82B9D8"></path>
                                    <path d="M8.53228232,14 C7.81221464,13.4898524 7.04428748,13.1442614 6.11151098,12.7541354 L1.80198206,10.9972325 C0.719100822,10.5527739 0,9.960014 0,8.96287696 C0,7.99335157 0.508567438,7.5241761 1.17110705,7.13850363 L1.41040447,7 C1.24603857,7.16522458 1.14210131,7.33044917 1.14210131,7.64820588 C1.14210131,8.25833439 1.71230596,8.46586716 2.31345007,8.71348136 L7.32757695,10.7500636 C8.20064994,11.0949866 9,11.6884146 9,12.6986894 C9,13.2544853 8.7708546,13.7514951 8.53228232,14" id="Fill-12" fill="#00A439"></path>
                                    <g id="Group-16" transform="translate(0.000000, 2.000000)">
                                        <mask id="mask-4" fill="white">
                                            <use xlink:href="#path-3"></use>
                                        </mask>
                                        <g id="Clip-15"></g>
                                        <path d="M7.90725817,7.81303642 L7.59473642,8 C7.7877433,7.84203201 7.92195657,7.61099513 7.92195657,7.38181396 C7.92195657,6.97865924 7.72798586,6.65808397 7.09619555,6.38691719 L1.75200129,4.12178149 C0.672753072,3.66179541 0,3.06912549 0,2.03479471 C0,1.08211552 0.493962678,0.459058223 1.27249605,0 C1.15274022,0.172813732 1.07828438,0.372999304 1.07828438,0.621897472 C1.07828438,1.21131988 1.58694546,1.45511482 2.0941608,1.67130596 L7.28968435,3.87798655 C8.23423737,4.27974948 9,4.88819299 9,5.99791232 C9,6.86406866 8.5802522,7.41034563 7.90725817,7.81303642" id="Fill-14" fill="#0070AF" mask="url(#mask-4)"></path>
                                    </g>
                                </g>
                            </g>
                        </g>
                    </g>
                </g>
            </g>
        </g>
    </g>
</svg>