<?xml version="1.0" encoding="UTF-8"?>
<svg width="28px" height="28px" viewBox="0 0 28 28" version="1.1" xmlns="http://www.w3.org/2000/svg" xmlns:xlink="http://www.w3.org/1999/xlink">
    <title>icon_bank_11</title>
    <g id="Page-1" stroke="none" stroke-width="1" fill="none" fill-rule="evenodd">
        <g id="02-7-Dropdown-Box4" transform="translate(-1512.000000, -834.000000)">
            <g id="03-Contents" transform="translate(600.000000, 196.000000)">
                <g id="img" transform="translate(888.000000, 44.000000)">
                    <g id="Group-3" transform="translate(0.000000, 1.000000)">
                        <g id="Group-5" transform="translate(0.000000, 240.000000)">
                            <g id="icon_bank_11" transform="translate(24.000000, 353.000000)">
                                <circle id="logo" stroke="#DDDDDD" fill="#FFFFFF" cx="14" cy="14" r="13.5"></circle>
                                <g id="logo" transform="translate(6.000000, 11.000000)" fill="#044DA1">
                                    <path d="M9.44798937,2.41673348e-12 C9.82661539,2.41673348e-12 10.2838152,0.0391046068 10.8017851,0.125575357 L10.7925272,1.35792124 C10.3711722,0.779062906 9.80928643,0.48550297 9.12016332,0.48550297 C7.75924607,0.48550297 6.89802023,1.63963964 6.89802023,3.51528384 C6.89802023,5.4096542 7.83592081,6.48392934 9.35279875,6.48392934 C9.57783791,6.48392934 9.78531073,6.46189858 9.99230879,6.39938629 C10.0438209,6.01054329 10.059963,5.59966954 10.059963,5.15850348 C10.059963,4.28608521 10.009163,3.72567764 9.84441912,3.48471616 L11,3.48471616 C10.8205384,3.80058224 10.8017851,4.43176364 10.8017851,5.4096542 C10.8017851,6.04276329 10.8105683,6.51642472 10.8979253,6.81824619 C9.97426767,6.88626618 9.3183782,7 8.93144376,7 C7.02525756,7 6,5.8018018 6,3.68492073 C6,1.44108738 7.28353036,2.41673348e-12 9.44798937,2.41673348e-12 Z M2.5008165,2.65787392e-12 C4.08505576,2.65787392e-12 5,1.25592492 5,3.22359631 C5,5.53308414 3.87159987,7 2.03494611,7 C1.46713013,7 0.983296785,6.94655639 0.576680819,6.94655639 L-6.48370246e-14,6.94655639 C0.19316008,6.69814906 0.211701401,5.7657264 0.213118049,4.11331389 L0.213009378,2.84315349 C0.211090375,1.27176595 0.191900341,0.375691904 -6.48370246e-14,0.126928583 L0.619605282,0.126928583 C0.771730331,0.126928583 0.919806698,0.120990966 1.06414594,0.111684167 C1.01599708,0.450835388 1,1.17502054 1,2.26403725 L1,3.79348124 C1,4.74582306 1.01599708,5.33826349 1.03878744,5.56094221 C1.07954711,5.91563955 1.28685172,6 1.96311176,6 C3.26764061,6 4,4.91098329 4,3.05751849 C4,1.24430414 3.33090713,0.156159401 2.12590771,0.0155577444 C2.25374666,0.00602260028 2.37860434,2.65787392e-12 2.5008165,2.65787392e-12 Z M13.9362773,6.47926157e-13 C15.0464947,6.47926157e-13 15.6450625,0.492078099 15.6450625,1.29475074 C15.6450625,2.06465552 15.0680297,2.66371929 13.9277152,3.03984956 C15.2675523,3.18996559 16,3.87360967 16,4.89221413 C16,5.33612067 15.8656012,5.73801712 15.6082196,6.07297751 C14.8568315,7.06553573 13.4124332,6.9983196 13.4124332,6.9983196 C13.3753308,6.9983196 13.340823,7 13.3050179,7 C12.7399201,7 12.2186705,6.93586461 11.7537232,6.93586461 L11,6.93586461 C11.2507176,6.68592673 11.2725293,5.74775896 11.2741307,4.08516515 L11.2742463,3.35940626 C11.2742463,1.43450428 11.2742463,0.352324558 11,0.0742178123 L11.9309325,0.0742178123 C12.6397696,0.0742178123 13.3050179,6.47926157e-13 13.9362773,6.47926157e-13 Z M12.2559064,3 C13.4248178,3 14,2.55710801 14,1.84763806 C14,1.28565092 13.5482446,1 12.6319276,1 C12.4709649,1 12.2835063,1.00820581 12.0856701,1.02461743 C12.0194303,1.28565092 12,1.84763806 12,2.71967177 L12,4.22393355 C12,5.1054772 12.041284,5.63372848 12.0681481,5.74067665 C12.1092346,5.90083932 12.345679,6 12.7437037,6 C13.5365926,6 14,5.4447521 14,4.49104439 C14,3.56796747 13.4945185,3 12.5327407,3 L12.2559064,3 Z" id="Combined-Shape"></path>
                                </g>
                            </g>
                        </g>
                    </g>
                </g>
            </g>
        </g>
    </g>
</svg>