<?xml version="1.0" encoding="UTF-8"?>
<svg width="28px" height="28px" viewBox="0 0 28 28" version="1.1" xmlns="http://www.w3.org/2000/svg" xmlns:xlink="http://www.w3.org/1999/xlink">
    <title>icon_bank_3</title>
    <defs>
        <path d="M7.00267084,14 C10.8644296,14 14,10.8676184 14,7.00042166 C14,3.13575487 10.8644296,0 6.99789144,0 C3.13304014,0 0,3.13575487 0,7.00042166 C0,10.8687428 3.13304014,14 7.00267084,14" id="path-1"></path>
    </defs>
    <g id="Page-1" stroke="none" stroke-width="1" fill="none" fill-rule="evenodd">
        <g id="02-7-Dropdown-Box4" transform="translate(-1512.000000, -658.000000)">
            <g id="03-Contents" transform="translate(600.000000, 196.000000)">
                <g id="img" transform="translate(888.000000, 44.000000)">
                    <g id="Group-3" transform="translate(0.000000, 1.000000)">
                        <g id="Group-5" transform="translate(0.000000, 240.000000)">
                            <g id="icon_bank_3" transform="translate(24.000000, 177.000000)">
                                <circle id="logo" stroke="#DDDDDD" fill="#FFFFFF" cx="14" cy="14" r="13.5"></circle>
                                <g id="logo" transform="translate(6.000000, 8.000000)">
                                    <mask id="mask-2" fill="white">
                                        <use xlink:href="#path-1"></use>
                                    </mask>
                                    <use id="Fill-4" fill="#0083CA" xlink:href="#path-1"></use>
                                    <path d="M7.49843895,9.94852532 C10.6035119,9.94852532 13.2660978,10.7971619 14.4062329,12 C14.7899676,11.1374513 15,10.1894825 15,9.19476906 C15,5.22008904 11.6380632,2 7.49843895,2 C3.35881474,2 0,5.22175849 0,9.19476906 C0,10.1942126 0.210883839,11.1374513 0.592915665,12 C1.73049632,10.7971619 4.39336601,9.94852532 7.49843895,9.94852532" id="Fill-7" fill="#0083CA" mask="url(#mask-2)"></path>
                                    <path d="M7.49857723,9.95057162 C10.6033502,9.95057162 13.2664947,10.7981955 14.406135,12 C14.7899989,11.1383658 15,10.1912688 15,9.19765748 C15,5.22713517 11.6382745,2 7.49857723,2 C3.35887999,2 0,5.2285362 0,9.19765748 C0,10.1960323 0.211139356,11.138646 0.593011344,12 C1.73065979,10.7981955 4.39351975,9.95057162 7.49857723,9.95057162" id="Fill-10" fill="#0084CA" mask="url(#mask-2)"></path>
                                    <path d="M7.49828826,9.95258925 C10.603104,9.95258925 13.2662901,10.799492 14.4060253,12 C14.789741,11.1392691 15,10.1933117 15,9.20050797 C15,5.23380838 11.6381376,2 7.49828826,2 C3.35872418,2 0,5.23521942 0,9.20050797 C0,10.1975448 0.210829625,11.1395513 0.592833505,12 C1.73028643,10.799492 4.39347256,9.95258925 7.49828826,9.95258925" id="Fill-13" fill="#0086CB" mask="url(#mask-2)"></path>
                                    <path d="M7.49828388,9.95520437 C10.6027382,9.95520437 13.2658645,10.8008072 14.4056517,12 C14.7892037,11.1404696 15,10.1956682 15,9.20339947 C15,5.2408618 11.6381283,2 7.49828388,2 C3.3587255,2 0,5.24228299 0,9.20339947 C0,10.1996475 0.210796278,11.1407538 0.59291816,12 C1.73041721,10.8008072 4.39325757,9.95520437 7.49828388,9.95520437" id="Fill-16" fill="#0087CB" mask="url(#mask-2)"></path>
                                    <path d="M7.49856618,9.95722629 C10.6027759,9.95722629 13.2665175,10.8021072 14.4061138,12 C14.7898027,11.1413765 15,10.1974347 15,9.20682547 C15,5.2478241 11.6385639,2 7.49856618,2 C3.35885524,2 0,5.24925561 0,9.20682547 C0,10.2017293 0.211057582,11.1416628 0.593025923,12 C1.73061482,10.8021072 4.39349621,9.95722629 7.49856618,9.95722629" id="Fill-19" fill="#0089CC" mask="url(#mask-2)"></path>
                                    <path d="M7.49841872,9.95939555 C10.6026105,9.95939555 13.2663447,10.8034952 14.4060146,12 C14.7895463,11.1423463 15,10.1993309 15,9.20959742 C15,5.25527743 11.6384912,2 7.49841872,2 C3.35892128,2 0,5.25671934 0,9.20959742 C0,10.2033683 0.211028693,11.1429231 0.59312288,12 C1.73049278,10.8034952 4.39365189,9.95939555 7.49841872,9.95939555" id="Fill-22" fill="#008ACD" mask="url(#mask-2)"></path>
                                    <path d="M7.49855875,9.96130607 C10.6024444,9.96130607 13.2664591,10.8043226 14.4062032,12 C14.7895768,11.1427492 15,10.2012549 15,9.21240995 C15,5.26225889 11.6387063,2 7.49855875,2 C3.35927591,2 0,5.26371136 0,9.21240995 C0,10.2050314 0.211287905,11.1433302 0.593220339,12 C1.73065837,10.8043226 4.39380837,9.96130607 7.49855875,9.96130607" id="Fill-25" fill="#008CCE" mask="url(#mask-2)"></path>
                                    <path d="M7.4984105,9.96377045 C10.6019883,9.96377045 13.2662852,10.8057124 14.4055257,12 C14.7890295,11.144011 15,10.2031547 15,9.21576776 C15,5.26973164 11.6383446,2 7.4984105,2 C3.35905439,2 0,5.27119487 0,9.21576776 C0,10.2072518 0.210970464,11.1445963 0.593029305,12 C1.73053581,10.8057124 4.39338767,9.96377045 7.4984105,9.96377045" id="Fill-28" fill="#008ECF" mask="url(#mask-2)"></path>
                                    <path d="M7.49826147,10.9665065 C10.6018197,10.9665065 13.2661103,11.8076776 14.405714,13 C14.7890589,12.1452664 15,11.2059144 15,10.2193885 C15,6.27741251 11.6385605,3 7.49826147,3 C3.35912146,3 0,6.27859186 0,10.2193885 C0,11.2091576 0.211230876,12.1461509 0.593127028,13 C1.73070236,11.8076776 4.39354427,10.9665065 7.49826147,10.9665065" id="Fill-31" fill="#008FCF" mask="url(#mask-2)"></path>
                                    <path d="M7.49840218,10.9688103 C10.6016501,10.9688103 13.2662251,11.8082578 14.4056127,13 C14.7887979,12.1459973 15,11.2079311 15,10.2220407 C15,6.28471707 11.638487,3 7.49840218,3 C3.35918889,3 0,6.28620229 0,10.2220407 C0,11.2111986 0.211202138,12.1471855 0.593225263,13 C1.73057928,11.8082578 4.3937017,10.9688103 7.49840218,10.9688103" id="Fill-34" fill="#0091D0" mask="url(#mask-2)"></path>
                                    <path d="M7.49839796,10.1741941 C10.6013943,10.1741941 13.2663068,10.9289755 14.4054993,12 C14.7888226,11.2325581 15,10.3888839 15,9.50318757 C15,5.96336536 11.6389304,3 7.49839796,3 C3.35903062,3 0,5.96444285 0,9.50318757 C0,10.3921164 0.210886071,11.2336356 0.593044255,12 C1.73048915,10.9289755 4.393654,10.1741941 7.49839796,10.1741941" id="Fill-37" fill="#0093D1" mask="url(#mask-2)"></path>
                                    <path d="M7.49839379,10.1762772 C10.6013083,10.1762772 13.2664564,10.930032 14.4054086,12 C14.7888558,11.2334881 15,10.3909765 15,9.50585078 C15,5.97023343 11.638923,3 7.49839379,3 C3.35932481,3 0,5.97131914 0,9.50585078 C0,10.3936908 0.211144209,11.2343024 0.593131242,12 C1.73062321,10.930032 4.393727,10.1762772 7.49839379,10.1762772" id="Fill-40" fill="#0094D2" mask="url(#mask-2)"></path>
                                    <path d="M7.49838952,10.1783923 C10.6010502,10.1783923 13.2665391,10.9316517 14.4055869,12 C14.788588,11.2338854 15,10.3928278 15,9.50910196 C15,5.97748063 11.639077,3 7.49838952,3 C3.35945888,3 0,5.97857468 0,9.50910196 C0,10.395563 0.211119136,11.2355265 0.593241845,12 C1.73053273,10.9316517 4.39367911,10.1783923 7.49838952,10.1783923" id="Fill-43" fill="#0096D3" mask="url(#mask-2)"></path>
                                    <path d="M6.99849294,10.1808716 C9.89395808,10.1808716 12.3819701,10.932778 13.4448555,12 C13.8024387,11.2351392 14,10.394757 14,9.51220409 C14,5.98502435 10.8631319,3 6.99849294,3 C3.13549801,3 0,5.98585122 0,9.51220409 C0,10.3975132 0.1972873,11.2365173 0.55377449,12 C1.61528977,10.932778 4.10083573,10.1808716 6.99849294,10.1808716" id="Fill-46" fill="#0098D4" mask="url(#mask-2)"></path>
                                    <path d="M6.99848892,10.1832773 C9.89398905,10.1832773 12.3820476,10.9341338 13.4450223,12 C13.8027356,11.2360875 14,10.3974505 14,9.51547887 C14,5.99231458 10.8632769,3 6.99848892,3 C3.13562415,3 0,5.99314794 0,9.51547887 C0,10.399395 0.19726436,11.2377543 0.553878761,12 C1.61520498,10.9341338 4.1010656,10.1832773 6.99848892,10.1832773" id="Fill-49" fill="#0099D4" mask="url(#mask-2)"></path>
                                    <path d="M6.99834717,10.1857774 C9.89355004,10.1857774 12.3818819,10.9358241 13.44465,12 C13.8022116,11.2373546 14,10.3993965 14,9.51860263 C14,5.99990668 10.8632088,3 6.99834717,3 C3.1354138,3 0,6.00074659 0,9.51860263 C0,10.4016363 0.196961946,11.2393144 0.553421746,12 C1.61508795,10.9358241 4.10066507,10.1857774 6.99834717,10.1857774" id="Fill-52" fill="#009BD5" mask="url(#mask-2)"></path>
                                    <path d="M6.99848087,10.1878096 C9.89338489,10.1878096 12.3819914,10.9367279 13.4448281,12 C13.8022373,11.2381012 14,10.4014235 14,9.52185364 C14,6.00752493 10.8634167,3 6.99848087,3 C3.13575473,3 0,6.0080893 0,9.52185364 C0,10.4036809 0.19721033,11.2400765 0.553790913,12 C1.61524651,10.9367279 4.10109101,10.1878096 6.99848087,10.1878096" id="Fill-55" fill="#009DD6" mask="url(#mask-2)"></path>
                                    <path d="M6.99875373,10.1901015 C9.89369152,10.1901015 12.3820696,10.9381815 13.4449961,12 C13.8025361,11.2391201 14,10.4034323 14,9.52507822 C14,6.01507538 10.8635635,3 6.99875373,3 C3.13588257,3 0,6.0159287 0,9.52507822 C0,10.4054233 0.197186999,11.2408268 0.553896065,12 C1.61543787,10.9381815 4.10104647,10.1901015 6.99875373,10.1901015" id="Fill-58" fill="#009FD7" mask="url(#mask-2)"></path>
                                    <path d="M6.99833386,10.192717 C9.89297049,10.192717 12.3821803,10.9393717 13.4448984,12 C13.8020073,11.2398687 14,10.4054734 14,9.52864152 C14,6.02303428 10.8634957,3 6.99833386,3 C3.13567122,3 0,6.02389448 0,9.52864152 C0,10.4074806 0.197159632,11.2421626 0.553713107,12 C1.61504284,10.9393717 4.10092034,10.192717 6.99833386,10.192717" id="Fill-61" fill="#00A1D8" mask="url(#mask-2)"></path>
                                    <path d="M6.99846861,10.1950859 C9.89308089,10.1950859 12.3820131,10.9408704 13.4448002,12 C13.8020326,11.2409186 14,10.4075478 14,9.5316846 C14,6.03083347 10.863706,3 6.99846861,3 C3.13573716,3 0,6.03170066 0,9.5316846 C0,10.4095712 0.197132117,11.2432311 0.553807601,12 C1.61520256,10.9408704 4.10107198,10.1950859 6.99846861,10.1950859" id="Fill-64" fill="#00A3D9" mask="url(#mask-2)"></path>
                                    <path d="M6.99860408,10.1974937 C9.89263351,10.1974937 12.3821242,10.9421022 13.4447015,12 C13.8017788,11.2419856 14,10.4099475 14,9.53506897 C14,6.03905187 10.8636382,3 6.99860408,3 C3.13580345,3 0,6.03963474 0,9.53506897 C0,10.4116961 0.19738364,11.2446085 0.553902604,12 C1.61536314,10.9421022 4.10122442,10.1974937 6.99860408,10.1974937" id="Fill-67" fill="#00A4DA" mask="url(#mask-2)"></path>
                                    <path d="M6.99846034,10.2002351 C9.8927436,10.2002351 12.3822359,10.943942 13.4446022,12 C13.8018036,11.2433641 14,10.4126808 14,9.5388031 C14,6.04769989 10.86385,3 6.99846034,3 C3.13587011,3 0,6.04828757 0,9.5388031 C0,10.41415 0.197356582,11.2460087 0.553718182,12 C1.61524465,10.943942 4.10109776,10.2002351 6.99846034,10.2002351" id="Fill-70" fill="#00A6DB" mask="url(#mask-2)"></path>
                                    <path d="M6.99859652,10.2030813 C9.89257358,10.2030813 12.3823482,10.9455509 13.4447831,12 C13.8018285,11.2444942 14,10.4149192 14,9.54268032 C14,6.05609507 10.8640629,3 6.99859652,3 C3.13593712,3 0,6.05668763 0,9.54268032 C0,10.4164006 0.197610073,11.2471607 0.553813457,12 C1.61540621,10.9455509 4.1012511,10.2030813 6.99859652,10.2030813" id="Fill-73" fill="#00A8DC" mask="url(#mask-2)"></path>
                                    <path d="M6.99859268,10.2055572 C9.8920386,10.2055572 12.3824286,10.946818 13.4443908,12 C13.8015682,11.2452943 14,10.4170899 14,9.54586197 C14,6.0645354 10.8639324,3 6.99859268,3 C3.13606755,3 0,6.06483418 0,9.54586197 C0,10.418285 0.197305991,11.248282 0.553638922,12 C1.6150382,10.946818 4.10120627,10.2055572 6.99859268,10.2055572" id="Fill-76" fill="#00AADC" mask="url(#mask-2)"></path>
                                    <path d="M6.99830666,10.4074992 C9.89194855,10.4074992 12.3822925,11.0652829 13.4443011,12 C13.8013144,11.3304319 14,10.5955139 14,9.82202879 C14,6.73183796 10.8639278,4 6.99830666,4 C3.13607225,4 0,6.73210579 0,9.82202879 C0,10.5965852 0.197274523,11.3331101 0.55372334,12 C1.61516752,11.0652829 4.10127807,10.4074992 6.99830666,10.4074992" id="Fill-79" fill="#00ACDE" mask="url(#mask-2)"></path>
                                    <path d="M6.99844347,10.4096158 C9.89189189,10.4096158 12.3823405,11.0665136 13.4444602,12 C13.8016131,11.3312175 14,10.5973395 14,9.82537646 C14,6.73941522 10.8642989,4 6.99844347,4 C3.13626716,4 0,6.73995543 0,9.82537646 C0,10.5981498 0.197254846,11.3341887 0.553558794,12 C1.61511249,11.0665136 4.10131598,10.4096158 6.99844347,10.4096158" id="Fill-82" fill="#00AEDE" mask="url(#mask-2)"></path>
                                    <path d="M6.99872302,10.4124779 C9.89151718,10.4124779 12.3824871,11.0679744 13.4443701,12 C13.8016418,11.332516 14,10.5996458 14,9.8286337 C14,6.74758207 10.8642951,4 6.99872302,4 C3.1365562,4 0,6.74785452 0,9.8286337 C0,10.6004632 0.197790615,11.3355129 0.553927232,12 C1.61524273,11.0679744 4.10167224,10.4124779 6.99872302,10.4124779" id="Fill-85" fill="#00B0DF" mask="url(#mask-2)"></path>
                                    <path d="M6.99829268,10.4148947 C9.89134146,10.4148947 12.3820325,11.0694926 13.4442683,12 C13.8010976,11.3335852 14,10.6020405 14,9.83229707 C14,6.75579678 10.8642276,4 6.99829268,4 C3.13605691,4 0,6.75579678 0,9.83229707 C0,10.6025901 0.197479675,11.3366082 0.553739837,12 C1.61512195,11.0694926 4.10126016,10.4148947 6.99829268,10.4148947" id="Fill-88" fill="#00B2E0" mask="url(#mask-2)"></path>
                                    <path d="M7.99843065,10.4173539 C10.8911648,10.4173539 13.3821461,11.0707603 14.4441659,12 C14.801121,11.3346732 15,10.6044771 15,9.83547023 C15,6.7638783 11.8644451,4 7.99843065,4 C4.13612555,4 1,6.7638783 1,9.83547023 C1,10.6047543 1.19773769,11.3377226 1.55383675,12 C2.61500051,11.0707603 5.10141649,10.4173539 7.99843065,10.4173539" id="Fill-91" fill="#0EB4E1" mask="url(#mask-2)"></path>
                                    <path d="M7.99842629,10.4201363 C10.8909031,10.4201363 13.3822273,11.0726097 14.4440516,12 C14.8008543,11.3357805 15,10.6069568 15,9.83953854 C15,6.77266212 11.8643136,4 7.99842629,4 C4.13625866,4 1,6.77266212 1,9.83953854 C1,10.6072365 1.19742893,11.3391365 1.55365938,12 C2.61519753,11.0726097 5.10137137,10.4201363 7.99842629,10.4201363" id="Fill-94" fill="#19B6E2" mask="url(#mask-2)"></path>
                                    <path d="M7.99842197,10.4229684 C10.8908085,10.4229684 13.3823752,11.0742099 14.4439594,12 C14.8008812,11.3369074 15,10.6091986 15,9.84283296 C15,6.78103837 11.8645968,4 7.99842197,4 C4.13655088,4 1,6.78103837 1,9.84283296 C1,10.6094808 1.19768419,11.3405756 1.55403218,12 C2.61532944,11.0742099 5.10173173,10.4229684 7.99842197,10.4229684" id="Fill-97" fill="#21B8E3" mask="url(#mask-2)"></path>
                                    <path d="M7.99841756,10.4255667 C10.8905444,10.4255667 13.3824575,11.0755543 14.4441316,12 C14.8009001,11.3380547 15,10.6114808 15,9.84675611 C15,6.78956546 11.8647527,4 7.99841756,4 C4.1363982,4 1,6.78956546 1,9.84675611 C1,10.6114808 1.19766128,11.3417559 1.55385437,12 C2.61524076,11.0755543 5.10139954,10.4255667 7.99841756,10.4255667" id="Fill-100" fill="#27BAE4" mask="url(#mask-2)"></path>
                                    <path d="M7.99870352,10.4260135 C10.8910131,10.4260135 13.3825654,11.0760636 14.4442409,12 C14.8009178,11.3384902 15,10.6119467 15,9.84729981 C15,6.79100415 11.8645278,4 7.99870352,4 C4.13662462,4 1,6.79129065 1,9.84729981 C1,10.6119467 1.19764164,11.3416416 1.55374231,12 C2.61512975,11.0760636 5.10178421,10.4260135 7.99870352,10.4260135" id="Fill-103" fill="#37BCE5" mask="url(#mask-2)"></path>
                                    <path d="M7.99841325,10.4261775 C10.8909061,10.4261775 13.3823851,11.0760027 14.4440621,12 C14.8006471,11.3383545 15,10.6124185 15,9.84785037 C15,6.79246099 11.8643023,4 7.99841325,4 C4.13598615,4 1,6.79274929 1,9.84785037 C1,10.6124185 1.19733344,11.3418141 1.55362994,12 C2.61501844,11.0760027 5.10159293,10.4261775 7.99841325,10.4261775" id="Fill-106" fill="#43BEE5" mask="url(#mask-2)"></path>
                                    <path d="M7.99869999,10.4268669 C10.8913766,10.4268669 13.3824931,11.0761977 14.4441716,12 C14.8003756,11.3387734 15,10.613136 15,9.84862003 C15,6.79403765 11.8643652,4 7.99869999,4 C4.13592373,4 1,6.79432778 1,9.84862003 C1,10.6134262 1.1973133,11.341965 1.55351726,12 C2.61490683,11.0761977 5.10169002,10.4268669 7.99869999,10.4268669" id="Fill-109" fill="#4CBFE6" mask="url(#mask-2)"></path>
                                    <path d="M7.99869816,10.4272731 C10.8916785,10.4272731 13.382824,11.0766872 14.4445478,12 C14.8006737,11.3389057 15,10.6135708 15,9.84939957 C15,6.79534256 11.8642986,4 7.99869816,4 C4.13570144,4 1,6.79592656 1,9.84939957 C1,10.6138628 1.19701196,11.3421178 1.55313785,12 C2.61486165,11.0766872 5.10195689,10.4272731 7.99869816,10.4272731" id="Fill-112" fill="#55C1E7" mask="url(#mask-2)"></path>
                                    <path d="M7.99884125,10.4275062 C10.891657,10.4275062 13.3826767,11.0766631 14.4443801,12 C14.8004056,11.3387944 15,10.6138192 15,9.84975939 C15,6.79704661 11.8641367,4 7.99884125,4 C4.13586327,4 1,6.79734048 1,9.84975939 C1,10.6141131 1.19698725,11.3417331 1.55330243,12 C2.61471611,11.0766631 5.10196987,10.4275062 7.99884125,10.4275062" id="Fill-115" fill="#5EC3E7" mask="url(#mask-2)"></path>
                                    <path d="M7.9986946,10.4284552 C10.8920453,10.4284552 13.3827521,11.0771279 14.4441889,12 C14.8001285,11.3394957 15,10.6145086 15,9.85077276 C15,6.79878725 11.8638445,4 7.9986946,4 C4.13528522,4 1,6.79908304 1,9.85077276 C1,10.6148044 1.19668055,11.3424536 1.55291022,12 C2.6140569,11.0771279 5.10215288,10.4284552 7.9986946,10.4284552" id="Fill-118" fill="#65C5E8" mask="url(#mask-2)"></path>
                                    <path d="M7.9989833,10.4288798 C10.8922295,10.4288798 13.3828613,11.077633 14.4442992,12 C14.8004357,11.339933 15,10.6152587 15,9.85187942 C15,6.80014886 11.863907,4 7.9989833,4 C4.13551198,4 1,6.80074432 1,9.85187942 C1,10.6155564 1.1966594,11.3426126 1.55308642,12 C2.61452433,11.077633 5.10225127,10.4288798 7.9989833,10.4288798" id="Fill-121" fill="#6CC7E9" mask="url(#mask-2)"></path>
                                    <path d="M7.9989819,10.4290691 C10.892705,10.4290691 13.3829708,11.0775801 14.4444098,12 C14.8001621,11.3395018 15,10.6151714 15,9.85218206 C15,6.80172317 11.8636789,4 7.9989819,4 C4.13544848,4 1,6.80232253 1,9.85218206 C1,10.6157707 1.1966382,11.3424986 1.55297222,12 C2.61441127,11.0775801 5.10264082,10.4290691 7.9989819,10.4290691" id="Fill-124" fill="#73C8E9" mask="url(#mask-2)"></path>
                                    <path d="M7.99912613,10.4295626 C10.8928051,10.4295626 13.3827556,11.0778281 14.4445092,12 C14.8001748,11.3399698 15,10.6156863 15,9.85279035 C15,6.80331825 11.8636761,4 7.99912613,4 C4.13486746,4 1,6.80422323 1,9.85279035 C1,10.6162896 1.19632974,11.3423831 1.55257792,12 C2.61433149,11.0778281 5.10253423,10.4295626 7.99912613,10.4295626" id="Fill-127" fill="#7ACAEA" mask="url(#mask-2)"></path>
                                    <path d="M7.99927076,10.6265184 C10.8931972,10.6265184 13.3831232,11.1935545 14.4449005,12 C14.8001875,11.422601 15,10.7894018 15,10.122191 C15,7.45441087 11.8636733,5 7.99927076,5 C4.13486822,5 1,7.45520802 1,10.122191 C1,10.7896675 1.19602042,11.4249924 1.55218252,12 C2.61395979,11.1935545 5.10271903,10.6265184 7.99927076,10.6265184" id="Fill-130" fill="#80CCEB" mask="url(#mask-2)"></path>
                                    <path d="M7.99912372,10.6266957 C10.8934696,10.6266957 13.3829752,11.1935114 14.4444398,12 C14.7999165,11.4227521 15,10.7895984 15,10.1224732 C15,7.4558447 11.8632172,5 7.99912372,5 C4.13473816,5 1,7.45664718 1,10.1224732 C1,10.7904009 1.19599416,11.424892 1.55234717,12 C2.61381181,11.1935114 5.10273315,10.6266957 7.99912372,10.6266957" id="Fill-133" fill="#87CEEB" mask="url(#mask-2)"></path>
                                    <path d="M7.99926878,10.6271447 C10.8937428,10.6271447 13.3828267,11.193737 14.4442703,12 C14.7996448,11.4229053 15,10.7900669 15,10.1232977 C15,7.45729784 11.8630523,5 7.99926878,5 C4.13460775,5 1,7.45837501 1,10.1232977 C1,10.7906055 1.19596783,11.4250596 1.55221978,12 C2.61395592,11.193737 5.1030398,10.6271447 7.99926878,10.6271447" id="Fill-136" fill="#8DD0EC" mask="url(#mask-2)"></path>
                                    <path d="M7.99926774,10.6278178 C10.893759,10.6278178 13.3831621,11.1939345 14.4446513,12 C14.7996527,11.4233093 15,10.7907661 15,10.1240607 C15,7.45886591 11.862983,5 7.99926774,5 C4.13408791,5 1,7.45995042 1,10.1240607 C1,10.7915795 1.19566082,11.4249361 1.5518338,12 C2.61361592,11.1939345 5.10301902,10.6278178 7.99926774,10.6278178" id="Fill-139" fill="#93D2ED" mask="url(#mask-2)"></path>
                                    <path d="M7.99926672,10.6282271 C10.8939473,10.6282271 13.3829796,11.1944076 14.4447634,12 C14.799669,11.4234459 15,10.7912019 15,10.1245613 C15,7.46018251 11.863045,5 7.99926672,5 C4.13402191,5 1,7.46154746 1,10.1245613 C1,10.7920209 1.19563805,11.4253568 1.55201022,12 C2.61379397,11.1944076 5.10311957,10.6282271 7.99926672,10.6282271" id="Fill-142" fill="#99D4EE" mask="url(#mask-2)"></path>
                                    <path d="M7.49959089,10.6284211 C10.1876849,10.6284211 12.4988566,11.194644 13.4842547,12 C13.8139935,11.423607 14,10.7916912 14,10.1254172 C14,7.46169553 11.0871709,5 7.49959089,5 C3.91010175,5 1,7.46306986 1,10.1254172 C1,10.7925158 1.18136998,11.4249813 1.51247246,12 C2.49841603,11.194644 4.81040596,10.6284211 7.49959089,10.6284211" id="Fill-145" fill="#9FD6EF" mask="url(#mask-2)"></path>
                                    <path d="M7.49972688,10.6291713 C10.1880541,10.6291713 12.4989285,11.1948838 13.4843481,12 C13.8140048,11.4237704 14,10.7921873 14,10.1260082 C14,7.46322948 11.0868944,5 7.49972688,5 C3.90982814,5 1,7.46461332 1,10.1260082 C1,10.7930176 1.18135216,11.425431 1.51237447,12 C2.49834027,11.1948838 4.81030716,10.6291713 7.49972688,10.6291713" id="Fill-148" fill="#A5D9EF" mask="url(#mask-2)"></path>
                                    <path d="M7.4997265,10.6295441 C10.1882311,10.6295441 12.4987587,11.1950627 13.4844526,12 C13.81402,11.4241688 14,10.7928728 14,10.126737 C14,7.46470237 11.0866784,5 7.4997265,5 C3.90976605,5 1,7.46609596 1,10.126737 C1,10.7937089 1.18105697,11.4255624 1.51199192,12 C2.49823277,11.1950627 4.81040141,10.6295441 7.4997265,10.6295441" id="Fill-151" fill="#ABDBF0" mask="url(#mask-2)"></path>
                                    <path d="M7.49986306,10.6300321 C10.1886021,10.6300321 12.4991046,11.1955894 13.4848204,12 C13.8140314,11.4240577 14,10.7931034 14,10.1276263 C14,7.46655974 11.0869483,5 7.49986306,5 C3.90976509,5 1,7.46796311 1,10.1276263 C1,10.7942261 1.18103866,11.4257418 1.51189297,12 C2.49788265,11.1955894 4.81057621,10.6300321 7.49986306,10.6300321" id="Fill-154" fill="#B1DDF1" mask="url(#mask-2)"></path>
                                    <path d="M7.5,10.630527 C10.1888608,10.630527 12.4989662,11.1955582 13.4846624,12 C13.8137764,11.4245104 14,10.79362 14,10.1282455 C14,7.46787805 11.0867932,5 7.5,5 C3.90964135,5 1,7.469574 1,10.1282455 C1,10.794468 1.18101266,11.425641 1.51204641,12 C2.49801688,11.1955582 4.81086498,10.630527 7.5,10.630527" id="Fill-157" fill="#B7DFF2" mask="url(#mask-2)"></path>
                                    <path d="M7.5,10.6307442 C10.1890396,10.6307442 12.4987958,11.1958113 13.4844932,12 C13.8135167,11.4244002 14,10.794144 14,10.1285889 C14,7.4694998 11.0865762,5 7.5,5 C3.90930409,5 1,7.47149248 1,10.1285889 C1,10.7952826 1.18099041,11.4258235 1.51166181,12 C2.49790848,11.1958113 4.81068576,10.6307442 7.5,10.6307442" id="Fill-160" fill="#BDE1F2" mask="url(#mask-2)"></path>
                                    <path d="M7.50013752,10.6317126 C10.1891383,10.6317126 12.4991432,11.1965756 13.4845876,12 C13.8138024,11.4253881 14,10.7948634 14,10.1299308 C14,7.47163397 11.086572,5 7.50013752,5 C3.90930247,5 1,7.47335436 1,10.1299308 C1,10.7960103 1.18069689,11.4262483 1.51183701,12 C2.49783147,11.1965756 4.81113673,10.6317126 7.50013752,10.6317126" id="Fill-163" fill="#C2E4F3" mask="url(#mask-2)"></path>
                                    <path d="M7.50013771,10.6321739 C10.1895934,10.6321739 12.4989725,11.1968065 13.4846931,12 C13.8135421,11.4252589 14,10.7953542 14,10.1307918 C14,7.47311961 11.0863541,5 7.50013771,5 C3.90896379,5 1,7.4748525 1,10.1307918 C1,10.7965095 1.18067414,11.4264142 1.51145103,12 C2.49772251,11.1968065 4.81095739,10.6321739 7.50013771,10.6321739" id="Fill-166" fill="#C8E6F4" mask="url(#mask-2)"></path>
                                    <path d="M7.5,10.6326989 C10.1896932,10.6326989 12.4990453,11.1967833 13.4845122,12 C13.8135528,11.4257335 14,10.7961932 14,10.1311612 C14,7.47452415 11.0860737,5 7.5,5 C3.90868587,5 1,7.47685147 1,10.1311612 C1,10.7970659 1.18010353,11.4266063 1.51135062,12 C2.4973692,11.1967833 4.81113421,10.6326989 7.5,10.6326989" id="Fill-169" fill="#CEE8F5" mask="url(#mask-2)"></path>
                                    <path d="M7.5002762,10.6332315 C10.1898742,10.6332315 12.4991502,11.1973458 13.484618,12 C13.8132914,11.425629 14,10.7964583 14,10.1321221 C14,7.47653535 11.0861307,5 7.5002762,5 C3.90862157,5 1,7.47858668 1,10.1321221 C1,10.7979236 1.18035608,11.4265081 1.51123906,12 C2.49753548,11.1973458 4.81123056,10.6332315 7.5002762,10.6332315" id="Fill-172" fill="#D3EBF6" mask="url(#mask-2)"></path>
                                    <path d="M7.50027658,10.6334767 C10.1903323,10.6334767 12.4992554,11.1973262 13.4847241,12 C13.8133058,11.4261134 14,10.7970226 14,10.1330972 C14,7.47828104 11.0859112,5 7.50027658,5 C3.90855708,5 1,7.4803475 1,10.1330972 C1,10.7984987 1.18005617,11.4267038 1.51112719,12 C2.49742564,11.1973262 4.81132718,10.6334767 7.50027658,10.6334767" id="Fill-175" fill="#D9EDF7" mask="url(#mask-2)"></path>
                                    <path d="M7.50027697,10.633965 C10.1905147,10.633965 12.4990839,11.1975697 13.4845534,12 C13.8130433,11.4259857 14,10.7975442 14,10.1334126 C14,7.47986064 11.0856912,5 7.50027697,5 C3.90849242,5 1,7.48223997 1,10.1334126 C1,10.7990313 1.18003238,11.4265806 1.511015,12 C2.49731549,11.1975697 4.81142407,10.633965 7.50027697,10.633965" id="Fill-178" fill="#DEF0F8" mask="url(#mask-2)"></path>
                                    <path d="M7.50055473,10.6345191 C10.1906977,10.6345191 12.4991892,11.1978511 13.4849371,12 C13.8133348,11.4261804 14,10.7978254 14,10.1341124 C14,7.48165746 11.0857478,5 7.50055473,5 C3.90842757,5 1,7.48405462 1,10.1341124 C1,10.7996233 1.18000853,11.4267797 1.5109025,12 C2.49720504,11.1978511 4.81179859,10.6345191 7.50055473,10.6345191" id="Fill-181" fill="#E4F2F9" mask="url(#mask-2)"></path>
                                    <path d="M7.50055553,11.6350226 C10.1912739,11.6350226 12.4995086,12.1984041 13.485022,13 C13.8133413,12.4266552 14,11.7986629 14,11.135648 C14,8.48358853 11.0856801,6 7.50055553,6 C3.90793128,6 1,8.4863058 1,11.135648 C1,11.8001725 1.17943678,12.4269571 1.5108115,13 C2.49688048,12.1984041 4.81178155,11.6350226 7.50055553,11.6350226" id="Fill-184" fill="#EAF5FA" mask="url(#mask-2)"></path>
                                    <path d="M7.50069538,11.6357789 C10.1915399,11.6357789 12.499647,12.1989308 13.4848621,13 C13.8130817,12.4271123 14,11.7994611 14,11.1362135 C14,8.48535292 11.0857993,6 7.50069538,6 C3.90808139,6 1,8.4880911 1,11.1362135 C1,11.8012865 1.17968633,12.4274166 1.51068746,13 C2.49701521,12.1989308 4.81207609,11.6357789 7.50069538,11.6357789" id="Fill-187" fill="#F0F8FB" mask="url(#mask-2)"></path>
                                    <path d="M7.5005571,10.8311654 C10.1916435,10.8311654 12.4994429,11.313625 13.4849582,12 C13.8130919,11.5091315 14,10.9712259 14,10.4031008 C14,8.13191433 11.0852368,6 7.5005571,6 C3.90752089,6 1,8.13454211 1,10.4031008 C1,10.9728025 1.17910864,11.5091315 1.51030641,12 C2.49665738,11.313625 4.81197772,10.8311654 7.5005571,10.8311654" id="Fill-190" fill="#F5FAFD" mask="url(#mask-2)"></path>
                                    <path d="M7.50083684,10.8316709 C10.191829,10.8316709 12.4995494,11.3136199 13.4850657,12 C13.8131062,11.5093124 14,10.9717539 14,10.4040074 C14,8.13355106 11.0855721,6 7.50083684,6 C3.90773324,6 1,8.13619913 1,10.4040074 C1,10.9733427 1.17936229,11.5093124 1.5104712,12 C2.49682431,11.3136199 4.81235516,10.8316709 7.50083684,10.8316709" id="Fill-193" fill="#FEFEFE" mask="url(#mask-2)"></path>
                                    <path d="M7.5007144,8 C5.08948629,8 2.85085618,8.38281754 1,9.03239845 C2.10931352,11.3720181 4.60284,13 7.50557229,13 C10.3963027,13 12.8886862,11.3720181 14,9.03239845 C12.1545732,8.38281754 9.91508584,8 7.5007144,8" id="Fill-197" fill="#0083CA" mask="url(#mask-2)"></path>
                                </g>
                            </g>
                        </g>
                    </g>
                </g>
            </g>
        </g>
    </g>
</svg>