<?xml version="1.0" encoding="UTF-8"?>
<svg width="28px" height="28px" viewBox="0 0 28 28" version="1.1" xmlns="http://www.w3.org/2000/svg" xmlns:xlink="http://www.w3.org/1999/xlink">
    <title>icon_bank_10</title>
    <g id="Page-1" stroke="none" stroke-width="1" fill="none" fill-rule="evenodd">
        <g id="02-7-Dropdown-Box4" transform="translate(-1668.000000, -790.000000)">
            <g id="03-Contents" transform="translate(600.000000, 196.000000)">
                <g id="img" transform="translate(888.000000, 44.000000)">
                    <g id="Group-3" transform="translate(0.000000, 1.000000)">
                        <g id="Group-5" transform="translate(0.000000, 240.000000)">
                            <g id="icon_bank_10" transform="translate(180.000000, 309.000000)">
                                <circle id="logo" stroke="#DDDDDD" stroke-width="1.17" fill="#FFFFFF" cx="14" cy="14" r="13.415"></circle>
                                <g id="logo" transform="translate(6.000000, 8.000000)">
                                    <polygon id="Fill-10" fill="#23297A" points="6 10 7 10 7 4 6 4"></polygon>
                                    <path d="M9,4.12068497 L9,5.39296567 L10.0988678,5.39296567 L10.0988678,9.20937345 C10.0988678,9.72575568 10.2361504,10.1685241 10.4937323,10.500329 C10.751112,10.8138933 11.1116053,10.9795786 11.5236555,10.9982535 C11.9872624,11.0167113 12.382127,10.88729 12.6738779,10.6846892 L12.6912657,10.6846892 L12.7084513,10.6664486 L12.9830166,9.46799887 L13,9.3757102 L12.9316619,9.41219137 C12.5709664,9.6521419 12.2792155,9.762454 11.9700768,9.762454 C11.5750101,9.762454 11.3691872,9.52315492 11.3691872,9.00655554 L11.3691872,5.39296567 L12.6912657,5.39296567 L12.6912657,4.12068497 L11.3691872,4.12068497 L11.3691872,2 L10.1158512,2.73787503 L10.0988678,2.73787503 L10.0988678,4.12068497 L9,4.12068497 Z" id="Fill-12" fill="#23297A"></path>
                                    <polygon id="Fill-13" fill="#23297A" points="14 10 15 10 15 4 14 4"></polygon>
                                    <path d="M3.57431033,4 C2.57420129,4 1.74092247,4.31120703 1.07425581,4.91613997 C0.352197143,5.55733004 0,6.41886851 0,7.50010791 C0,8.56278711 0.352197143,9.44266996 1.07425581,10.0836442 C1.74092247,10.6885772 2.57420129,11 3.57431033,11 C4.51859121,11 5.33333333,10.6154154 5.98146331,9.84559889 L6,9.82725451 L5.98146331,9.80869431 L5.24086795,8.91089872 L5.20379457,8.87442577 L5.18525788,8.91089872 C4.70395813,9.42410976 4.14807546,9.68114691 3.51870025,9.68114691 C2.9072075,9.68114691 2.40737106,9.4791429 2.00021808,9.05765377 C1.61138371,8.65450902 1.4074801,8.1415138 1.4074801,7.50010791 C1.4074801,6.85870202 1.61138371,6.34549098 2.00021808,5.94234623 C2.40737106,5.5208571 2.9072075,5.31950054 3.51870025,5.31950054 C4.14807546,5.31950054 4.70395813,5.57567443 5.18525788,6.08910128 L5.20379457,6.12557423 L5.24086795,6.08910128 L5.98146331,5.19108987 L6,5.17274549 L5.98146331,5.15440111 C5.33333333,4.38458455 4.51859121,4 3.57431033,4" id="Fill-14" fill="#23297A"></path>
                                    <path d="M7.58454219,2.98145013 C8.65906255,1.8187707 9.97014896,1.23732057 11.5,1.23732057 C13.0300655,1.23732057 14.3411519,1.8187707 15.3974419,2.98145013 L15.4334737,3 L17,3 L16.9453088,2.90636732 C16.3261192,2.0062569 15.5246256,1.29363268 14.5414717,0.768715495 C13.5763336,0.243577475 12.5747348,0 11.5,0 C10.44371,0 9.42388083,0.243577475 8.45852831,0.768715495 C7.49339027,1.29363268 6.67388083,2.0062569 6.05447668,2.90636732 L6,3 L7.56631181,3 L7.58454219,2.98145013 Z" id="Fill-15" fill="#E52020"></path>
                                </g>
                            </g>
                        </g>
                    </g>
                </g>
            </g>
        </g>
    </g>
</svg>