<?xml version="1.0" encoding="UTF-8"?>
<svg width="28px" height="28px" viewBox="0 0 28 28" version="1.1" xmlns="http://www.w3.org/2000/svg" xmlns:xlink="http://www.w3.org/1999/xlink">
    <title>icon_bank_1</title>
    <defs>
        <polygon id="path-1" points="0 0 16 0 16 12 0 12"></polygon>
    </defs>
    <g id="Page-1" stroke="none" stroke-width="1" fill="none" fill-rule="evenodd">
        <g id="02-7-Dropdown-Box4" transform="translate(-1512.000000, -614.000000)">
            <g id="03-Contents" transform="translate(600.000000, 196.000000)">
                <g id="img" transform="translate(888.000000, 44.000000)">
                    <g id="Group-3" transform="translate(0.000000, 1.000000)">
                        <g id="Group-5" transform="translate(0.000000, 240.000000)">
                            <g id="icon_bank_1" transform="translate(24.000000, 133.000000)">
                                <circle id="logo" stroke="#DDDDDD" stroke-width="1.17" fill="#FFFFFF" cx="14" cy="14" r="13.415"></circle>
                                <g id="logo" transform="translate(6.000000, 8.000000)">
                                    <mask id="mask-2" fill="white">
                                        <use xlink:href="#path-1"></use>
                                    </mask>
                                    <g id="Clip-2"></g>
                                    <path d="M4.59647826,6.39989181 C4.61278636,7.64178171 4.67304992,9.06114211 4.88008643,10.1885306 C4.88008643,10.1924325 4.88161532,10.2025237 4.88658419,10.2097894 C5.05081193,10.4640875 5.22179224,11.4745526 5.35697116,11.7904743 C5.36194003,11.8000273 5.37136816,11.8098494 5.38729404,11.8218243 C5.47940937,11.8884262 5.80149448,12.0235137 6.0120984,11.9964693 C6.03044502,11.9952584 6.03719759,11.9827453 6.03821685,11.9715777 C6.08561229,11.7114939 6.0552894,11.4667488 6.02687762,10.9861387 C5.95310892,9.80600695 5.8719506,7.92958263 5.88405428,6.79237207 C6.75870393,7.30581214 10.0362512,9.78838099 11.7454173,10.3007447 C11.7832572,10.3119123 11.826066,10.305723 11.8540956,10.2767949 C11.9448094,10.1762866 12.0040537,10.1586606 12.1059794,10.1129139 C12.1529926,10.0899059 12.2094339,9.9571058 12.1964384,9.80452691 C13.2793986,9.76174024 14.7812734,9.32337867 15.5687766,8.27752708 C16.1108937,7.55809205 16.1017204,6.55731447 15.7637094,6.21959577 C15.7326221,6.19039857 15.6689185,6.17290717 15.6221601,6.12500762 C15.1057792,5.58169761 14.4051677,5.43544254 13.653211,5.48253479 C12.8902974,5.53097253 12.2789982,5.86774939 11.8052986,6.18407476 C11.8036423,6.18542025 11.8002024,6.18622755 11.7993105,6.18044193 C11.758158,5.41014727 12.0504299,4.43143578 11.7945964,3.79905414 C11.7845313,3.77322068 11.7666943,3.76555137 11.7414677,3.76555137 C11.5135364,3.7689151 11.0691405,3.9384472 10.97384,4.02684608 C10.9512889,4.04662482 10.9408416,4.06694177 10.9389304,4.10865204 C10.9363823,4.28827534 10.8842728,5.22446926 10.7991649,5.31448273 C10.7840034,5.33143594 10.7887175,5.34892735 10.7840034,5.3870048 C10.683097,6.51439325 10.6864096,7.46955862 10.7766138,8.27887257 C10.7800538,8.30591698 10.8842728,8.42001477 11.0077303,8.46683792 C11.0913093,8.4995334 11.4303396,8.42620404 11.721847,8.3103571 C11.7627447,8.29407664 11.8111594,8.29192385 11.8344749,8.28977106 C11.8642881,8.28708008 11.8756273,8.25048267 11.8730792,8.21321252 C11.8706585,8.15979645 11.8683651,8.00735211 11.8809784,7.94909227 C12.0474995,7.23490467 12.7377911,6.30422727 13.61002,6.16254687 C14.1637312,6.07051516 14.5298992,6.27206999 14.7836941,6.56713657 C14.850328,6.64369511 14.9290656,7.21835511 14.6146249,7.8415874 C14.3875855,8.29192385 13.9287926,8.68696055 13.3088297,8.93399304 C12.6567602,9.19501865 12.0020152,9.25072205 11.3240821,9.22529224 C10.6622023,8.80374933 9.55210431,7.82732517 8.5793512,7.43874684 C8.42276789,7.37510503 8.14820562,7.12026868 8.02614963,7.01760758 C7.55372415,6.61557431 6.54274892,5.92049271 5.94317116,5.49383693 C5.93883932,5.4896659 5.93883932,5.48536032 5.93883932,5.47580732 C5.93157712,5.38983033 5.94049562,5.37301167 5.94686597,5.34246898 C5.9546378,5.31286814 5.97234739,5.3010278 5.99260511,5.28716923 C6.20384606,5.13956866 7.09212827,4.62666679 7.16857253,4.50624518 C7.19443616,4.47812438 7.24756492,4.44583255 7.26782265,4.43412676 C8.6026667,3.58014245 10.9442815,2.42301861 11.9683797,1.30464495 C11.9807382,1.29065183 11.9825219,1.2668366 11.9825219,1.2387158 C11.9825219,1.19081626 11.9914404,1.14049482 12.0020152,1.10376287 C12.0455884,0.945936559 12.0504299,0.828205935 12.0128448,0.685987341 C12.0073663,0.664728554 11.9869811,0.642258824 11.9725841,0.640375134 C11.4261351,0.583460786 10.700297,0.934903518 10.0246572,1.60347891 C9.82437325,1.80180456 9.66371291,1.87540302 9.48521559,1.9826388 C8.71988122,2.44172096 6.90764281,3.62992569 6.04229388,4.21777151 C6.03044502,4.22570992 6.02012505,4.21952065 6.02012505,4.20633482 C6.07261677,3.13249698 6.26844146,1.60132612 6.48299499,0.420656152 C6.4903846,0.37975317 6.47815352,0.350286876 6.46808836,0.335217356 C6.39763224,0.223003253 6.35647975,0.0893958134 6.33138056,0.0610059143 C6.32704872,0.0561621401 6.3248828,0.0544129994 6.31914948,0.0507801687 C6.17250392,-0.0276620642 6.0552894,0.00140058123 5.94686597,0.0283104382 C5.83882476,0.0544129994 5.70402806,0.145368316 5.53279294,0.18963503 C5.50794856,0.195689748 5.4962271,0.207530085 5.48743602,0.226770633 C5.06393486,1.31204516 4.69126913,3.16976714 4.62094042,4.61038633 C4.62094042,4.61455735 4.62094042,4.62572494 4.61189451,4.61913203 C3.76259887,4.03935916 2.97904529,3.628042 2.50343463,3.38248955 C2.49094874,3.37751123 2.48368654,3.37603119 2.47069101,3.3736093 C2.31308845,3.35248506 2.1270741,3.22910337 1.95532935,3.12092575 C1.76536538,2.99969684 1.39193521,2.72091072 1.15928987,2.57828848 C1.1293492,2.55864428 1.10361297,2.55433871 1.07915081,2.55864428 C0.893136464,2.59268525 0.504162628,2.86676215 0.396376233,3.04396355 C0.362613355,3.09899421 0.433579102,3.22170316 0.425042827,3.29651256 C0.423386535,3.30525826 0.426444305,3.31279302 0.431285774,3.31844409 C0.648132636,3.55377079 1.21878898,3.97006628 1.8286867,4.31572339 C2.53184642,4.71641116 3.2488935,5.09664744 3.54587942,5.29591493 C3.55823791,5.30546793 3.55823791,5.30896621 3.56320678,5.31529003 C3.59875336,5.3586149 3.62767477,5.38175737 3.72297527,5.44257365 C3.86337788,5.53097253 3.89293632,5.54173647 3.93345178,5.57967937 C3.95205321,5.59824717 3.94313472,5.61883321 3.92364143,5.63363364 C3.17932923,6.18044193 1.69949592,7.19480898 0.993660656,7.69519777 C0.891097951,7.76704709 0.491167105,7.95568519 0.408097685,7.9912062 C0.228581099,8.06991753 0.0667740991,8.19491382 0.00434462652,8.33820881 C-0.00826867508,8.36538776 0.00880387456,8.37911179 0.0271504951,8.3854356 C0.140925024,8.42001477 0.168444954,8.50410807 0.247564755,8.53680355 C0.271389881,8.54635655 0.298654997,8.54635655 0.337131937,8.54783659 C0.483267866,8.55335311 0.74330573,8.44840467 1.20630308,8.23352946 C1.73542472,7.98555513 3.38075983,6.91979025 3.57926008,6.7976195 C3.58346451,6.79492851 3.58563043,6.79358302 3.59263782,6.79358302 C3.68844795,6.79425576 3.77686847,6.71783177 3.86426973,6.64652065 C3.9608443,6.56713657 4.19323483,6.41644137 4.33147152,6.35266501 L4.60017306,6.1951078 L4.59647826,6.39989181 Z" id="Fill-1" fill="#FCB813" mask="url(#mask-2)"></path>
                                </g>
                            </g>
                        </g>
                    </g>
                </g>
            </g>
        </g>
    </g>
</svg>