<?xml version="1.0" encoding="UTF-8"?>
<svg width="28px" height="28px" viewBox="0 0 28 28" version="1.1" xmlns="http://www.w3.org/2000/svg" xmlns:xlink="http://www.w3.org/1999/xlink">
    <title>icon_bank_6</title>
    <defs>
        <polygon id="path-1" points="0 0 14 0 14 14 0 14"></polygon>
        <polygon id="path-3" points="0 14 14 14 14 3.63797881e-12 0 3.63797881e-12"></polygon>
    </defs>
    <g id="Page-1" stroke="none" stroke-width="1" fill="none" fill-rule="evenodd">
        <g id="02-7-Dropdown-Box4" transform="translate(-1668.000000, -702.000000)">
            <g id="03-Contents" transform="translate(600.000000, 196.000000)">
                <g id="img" transform="translate(888.000000, 44.000000)">
                    <g id="Group-3" transform="translate(0.000000, 1.000000)">
                        <g id="Group-5" transform="translate(0.000000, 240.000000)">
                            <g id="icon_bank_6" transform="translate(180.000000, 221.000000)">
                                <circle id="logo" stroke="#DDDDDD" stroke-width="1.17" fill="#FFFFFF" cx="14" cy="14" r="13.415"></circle>
                                <g id="logo" transform="translate(7.000000, 7.000000)">
                                    <g id="Group-3">
                                        <mask id="mask-2" fill="white">
                                            <use xlink:href="#path-1"></use>
                                        </mask>
                                        <g id="Clip-2"></g>
                                        <path d="M3.40567422,0.174030308 C3.02787159,0.368852004 2.74494932,0.704200825 2.61259808,1.12010434 L0.08176734,8.97258974 C-0.0519589788,9.38423485 -0.0206759582,9.82923741 0.168397243,10.2199454 C0.358501753,10.6081693 0.682676351,10.9002244 1.08144892,11.0386224 L9.38348131,13.9165895 C9.78672289,14.0532131 10.2150596,14.0212751 10.5928623,13.8260985 C10.9710087,13.6295025 11.2535872,13.2945086 11.3859384,12.8800245 L13.918488,5.03037805 C14.1952224,4.17479497 13.7441969,3.247174 12.9157125,2.96150648 L4.61505517,0.0849588226 C4.21353245,-0.053084237 3.78485193,-0.0225657199 3.40567422,0.174030308" id="Fill-1" fill="#FEFEFE" mask="url(#mask-2)"></path>
                                    </g>
                                    <mask id="mask-4" fill="white">
                                        <use xlink:href="#path-3"></use>
                                    </mask>
                                    <g id="Clip-5"></g>
                                    <path d="M4,10 L5,10 L5,6 L4,6 L4,10 Z M7.46023535,8.19401468 C7.0401327,8.71817415 6.51588561,9.13950124 5.90832297,9.40086686 L5.56032031,9.55225897 L5.56032031,5.88992677 L5.90447763,6.03846242 C6.51332205,6.29804276 7.03885092,6.71829868 7.46023535,7.23888758 C7.76113267,6.69973172 7.94699044,6.07381105 7.98576421,5.39540302 C8.0815771,3.6401115 7.09556958,2.02978507 5.73912831,1.46884874 L4.62269991,1.05466278 C4.11799993,0.867564991 3.58125551,1.17677623 3.4146244,1.73771256 L1.04910361,9.64509375 C0.879908952,10.2074583 1.16286138,10.8165973 1.66884314,11.0022669 L7.03885092,13 C7.58520867,12.3508706 7.9402611,11.4917918 7.99281399,10.532023 C8.04152154,9.67758593 7.84028244,8.87063743 7.46023535,8.19401468 L7.46023535,8.19401468 Z" id="Fill-4" fill="#00A4E2" mask="url(#mask-4)"></path>
                                    <path d="M10.9745183,8.99826087 L10.3287756,9 L9,7.00208696 L10.3505283,5.00173913 L11,5 L9.64978247,7.00556522 L10.9745183,8.99826087 Z M12.2835037,3.70565171 L7,2 C7.70929886,2.74980993 8.14312184,3.74612817 8.14621322,4.83733387 C8.14621322,5.70160594 7.86833294,6.52573331 7.38367401,7.21814629 C7.87005037,7.90591443 8.15067854,8.73004181 8.15376991,9.59431387 C8.15376991,10.6254684 7.76906545,11.5733476 7.1312117,12.3085595 L9.11553108,12.9485521 C9.65789568,13.1240607 10.2304871,12.8354171 10.4104738,12.3125408 L12.9481493,4.96639407 C13.1277926,4.44517664 12.8248378,3.87817435 12.2835037,3.70565171 L12.2835037,3.70565171 Z" id="Fill-6" fill="#004898" mask="url(#mask-4)"></path>
                                    <path d="M7,6.99685243 C6.72271649,6.58952046 6.38641756,6.24847251 6,6 L6,8 C6.38641756,7.74856508 6.72390273,7.40381411 7,6.99685243" id="Fill-7" fill="#E7390E" mask="url(#mask-4)"></path>
                                </g>
                            </g>
                        </g>
                    </g>
                </g>
            </g>
        </g>
    </g>
</svg>