<?xml version="1.0" encoding="UTF-8"?>
<svg width="28px" height="28px" viewBox="0 0 28 28" version="1.1" xmlns="http://www.w3.org/2000/svg" xmlns:xlink="http://www.w3.org/1999/xlink">
    <title>icon_bank_12</title>
    <g id="Page-1" stroke="none" stroke-width="1" fill="none" fill-rule="evenodd">
        <g id="02-7-Dropdown-Box4" transform="translate(-1668.000000, -834.000000)">
            <g id="03-Contents" transform="translate(600.000000, 196.000000)">
                <g id="img" transform="translate(888.000000, 44.000000)">
                    <g id="Group-3" transform="translate(0.000000, 1.000000)">
                        <g id="Group-5" transform="translate(0.000000, 240.000000)">
                            <g id="icon_bank_12" transform="translate(180.000000, 353.000000)">
                                <circle id="logo" stroke="#DDDDDD" stroke-width="1.17" fill="#FFFFFF" cx="14" cy="14" r="13.415"></circle>
                                <path d="M18.0727702,11 C18.1026296,11 18.1267097,11.027027 18.1267097,11.0600284 L18.1267097,11.0600284 L18.1267097,15.9288762 C18.3655847,15.9288762 18.4869486,15.8219061 18.5712291,15.5965861 L18.5712291,15.5965861 L19.9575226,11.8199147 C20.1807455,11.2623044 20.5720478,11 21.3091408,11 L21.3091408,11 L21.9467829,11 C21.9764015,11 22,11.027027 22,11.0600284 L22,11.0600284 L22,12.0119488 C22,12.0446657 21.9764015,12.0708393 21.9467829,12.0708393 L21.9467829,12.0708393 L21.4928723,12.0708393 C21.1711616,12.0708393 21.0134367,12.1871977 20.9036313,12.4517781 L20.9036313,12.4517781 L19.535157,16.1815078 C19.3119341,16.7374111 18.9748122,17 18.2377191,17 L18.2377191,17 L17.0953573,17 C17.0428626,17 17,16.9527738 17,16.8947368 L17,16.8947368 L17,11.0600284 C17,11.027027 17.0245617,11 17.0541803,11 L17.0541803,11 Z M8.11149672,11 C9.10084075,11 9.92203539,11.6358464 9.92203539,12.683926 C9.92203539,13.3863442 9.57767133,13.8119488 9.16316355,14.000569 C9.68960798,14.1980085 10,14.6751067 10,15.2512091 C10,16.4244666 9.19371395,17 8.06750415,17 L8.06750415,17 L5.0542575,17 C5.02444032,17 5,16.9732575 5,16.940256 L5,16.940256 L5,12.7362731 C5,12.7035562 5.02444032,12.6768137 5.0542575,12.6768137 L5.0542575,12.6768137 L6.15504937,12.6768137 C6.18486656,12.6768137 6.20930687,12.7035562 6.20930687,12.7362731 L6.20930687,12.7362731 L6.20930687,13.4435277 L7.89959918,13.4435277 C8.35932154,13.4435277 8.66946916,13.1362731 8.66946916,12.7570413 C8.66946916,12.3786629 8.35932154,12.0708393 7.89959918,12.0708393 L7.89959918,12.0708393 L5.0542575,12.0708393 C5.02444032,12.0708393 5,12.0446657 5,12.0122333 L5,12.0122333 L5,11.0600284 C5,11.027027 5.02444032,11 5.0542575,11 L5.0542575,11 Z M21.4268648,14.0001123 L21.4345644,14.0057012 L22.9910137,16.9199207 C23.0103299,16.9549554 22.9970232,17 22.9652589,17 L22.9652589,17 L21.8685331,17 C21.7867615,17 21.7320326,16.9636306 21.6843861,16.8715394 L21.6843861,16.8715394 L21.0036005,15.5355496 C20.9993081,15.5278754 20.9993081,15.5175318 21.0012397,15.5078555 L21.0012397,15.5078555 L21.4206139,14.0080368 C21.423404,13.9990279 21.4298427,13.9966922 21.4345644,14.0057012 Z M12,13 L12,17 L11,17 L11,13 L12,13 Z M11.9527687,11 C12.6454035,11 13.0127579,11.2623044 13.2222222,11.8199147 L13.2222222,11.8199147 L14.52538,15.5965861 C14.604325,15.8219061 14.7176529,15.9288762 14.9422729,15.9288762 L14.9422729,15.9288762 L14.9422729,11.0600284 C14.9422729,11.027027 14.964667,11 14.9922638,11 L14.9922638,11 L15.950009,11 C15.9776059,11 16,11.027027 16,11.0600284 L16,11.0600284 L16,16.8947368 C16,16.9527738 15.9606406,17 15.9115545,17 L15.9115545,17 L14.8379931,17 C14.1453583,17 13.829126,16.7374111 13.6194354,16.1815078 L13.6194354,16.1815078 L12.3339215,12.4520626 C12.2303203,12.1871977 12.0823833,12.0708393 11.7801755,12.0708393 L11.7801755,12.0708393 L11.0502172,12.0708393 C11.0223941,12.0708393 11,12.0446657 11,12.0122333 L11,12.0122333 L11,11.0600284 C11,11.027027 11.0223941,11 11.0502172,11 L11.0502172,11 Z M8.06701329,15 L6,15 L6,16 L8.06701329,16 C8.62391681,16 9,15.7763397 9,15.4998989 C9,15.2240647 8.62391681,15 8.06701329,15 L8.06701329,15 Z" id="logo" fill="#D71921"></path>
                            </g>
                        </g>
                    </g>
                </g>
            </g>
        </g>
    </g>
</svg>