<?xml version="1.0" encoding="UTF-8"?>
<svg width="28px" height="28px" viewBox="0 0 28 28" version="1.1" xmlns="http://www.w3.org/2000/svg" xmlns:xlink="http://www.w3.org/1999/xlink">
    <title>icon_bank_5</title>
    <g id="Page-1" stroke="none" stroke-width="1" fill="none" fill-rule="evenodd">
        <g id="02-7-Dropdown-Box4" transform="translate(-1512.000000, -702.000000)">
            <g id="03-Contents" transform="translate(600.000000, 196.000000)">
                <g id="img" transform="translate(888.000000, 44.000000)">
                    <g id="Group-3" transform="translate(0.000000, 1.000000)">
                        <g id="Group-5" transform="translate(0.000000, 240.000000)">
                            <g id="icon_bank_5" transform="translate(24.000000, 221.000000)">
                                <circle id="logo" stroke="#DDDDDD" fill="#FFFFFF" cx="14" cy="14" r="13.5"></circle>
                                <g id="logo" transform="translate(7.000000, 8.000000)">
                                    <path d="M8.95537955,7.06962479 C8.92297348,6.88576637 8.87035373,6.70678646 8.79206581,6.54183222 C8.54693476,6.03721252 8.20330211,5.61247824 7.69025953,5.3289155 C6.89165853,4.88649666 5.92685611,4.88893591 5.13723898,5.34507553 C4.77884712,5.54966757 4.48494656,5.84542655 4.29628549,6.19972751 C4.23115251,6.31925072 4.18013701,6.44609169 4.13650112,6.57506699 C3.92858893,7.20286878 3.93661023,8.04867848 4.3116864,8.62220698 C4.43296851,8.81002917 4.61039975,8.97010491 4.82761665,9.04938051 C5.0432293,9.12896102 5.30087357,9.12011874 5.49498912,9.00120534 C5.74653721,8.84539829 5.7908148,8.55299328 5.74429124,8.29046907 C5.6855753,7.9553772 5.63969344,7.62760307 5.77028027,7.30043876 C5.81070764,7.19616085 5.86974443,7.0946271 5.9544494,7.01901037 C6.00578574,6.97144501 6.06674765,6.93363664 6.13091808,6.90284112 C6.26695939,6.84003045 6.42225183,6.81106436 6.57144808,6.83545686 C6.83294258,6.87509466 7.04727182,7.06749045 7.1634203,7.29434063 C7.27860622,7.51997119 7.31101229,7.77578747 7.32352552,8.02794486 C7.37871209,9.12408252 7.1037418,10.2583334 6.80919952,11.3108695 C6.77968113,11.4194161 6.74855847,11.5276578 6.71518985,11.6340701 C6.69016338,11.7173094 6.64620663,11.8237217 6.7013932,11.9042169 C6.72706137,11.9386713 6.76299682,11.9633687 6.80406589,11.9792238 C6.97475923,12.0444738 7.11561333,11.9447694 7.22791158,11.8362228 C7.90523047,11.1882972 8.33902257,10.3565132 8.63420655,9.49759257 C8.74490054,9.17866072 8.84083533,8.85332585 8.9034015,8.52189285 C8.99099414,8.06758266 9.04168878,7.54863237 8.95537955,7.06962479" id="Fill-1" fill="#009490"></path>
                                    <path d="M14,2.26035439 C14,2.09972293 13.8466957,1.99460381 13.682487,2.0002141 C13.5153918,2.00671022 13.3601632,2.08525428 13.2065382,2.13899496 C10.2360276,3.17926085 6.88321847,3.3770974 3.75138559,2.96105009 C3.21546211,2.89018327 2.67344495,2.78978861 2.13495571,2.71301622 C1.79787877,2.664 1.46465047,2.59401901 1.12436632,2.56980618 C0.835397411,2.55090836 0.473625011,2.54116417 0.239499255,2.7268943 C-0.0703164706,2.97168012 -0.0478660557,3.43762947 0.127567901,3.74619543 C0.337960361,4.11381707 0.706467886,4.39196934 1.09004926,4.60102647 C1.46208471,4.80624497 1.90692364,5.02386517 2.3504797,4.99788067 C3.54772825,4.92760441 4.74048673,4.82219001 5.93100016,4.67779886 C7.95987623,4.43655639 10.086572,4.20830616 11.99165,3.48221651 C12.6148094,3.24599377 13.2293093,2.95071535 13.7636292,2.56803451 C13.8598453,2.50071103 14,2.38939106 14,2.26035439" id="Fill-3" fill="#009490"></path>
                                    <path d="M5,1.01232895 C5,1.55832543 5.44813392,2 6,2 C6.55186608,2 7,1.55832543 7,1.01232895 C7,0.931039155 6.97996707,0.849207424 6.94593853,0.775504674 C6.8611416,0.596396152 6.76372119,0.508874136 6.77332602,0.293727137 C6.78594951,0.0043354559 6.40944018,0 6.20636663,0 C5.98545554,0 5.75219539,0.0303481913 5.55159166,0.128979813 C5.39215148,0.208643815 5.25521405,0.330307546 5.15834248,0.477984013 C5.05872667,0.62972497 5.00384193,0.808833491 5,0.990109741 L5,1.01232895" id="Fill-6" fill="#940000"></path>
                                </g>
                            </g>
                        </g>
                    </g>
                </g>
            </g>
        </g>
    </g>
</svg>