<?xml version="1.0" encoding="UTF-8"?>
<svg width="28px" height="28px" viewBox="0 0 28 28" version="1.1" xmlns="http://www.w3.org/2000/svg" xmlns:xlink="http://www.w3.org/1999/xlink">
    <title>icon_bank_16</title>
    <g id="Page-1" stroke="none" stroke-width="1" fill="none" fill-rule="evenodd">
        <g id="02-7-Dropdown-Box4" transform="translate(-1668.000000, -922.000000)">
            <g id="03-Contents" transform="translate(600.000000, 196.000000)">
                <g id="img" transform="translate(888.000000, 44.000000)">
                    <g id="Group-3" transform="translate(0.000000, 1.000000)">
                        <g id="Group-5" transform="translate(0.000000, 240.000000)">
                            <g id="icon_bank_16" transform="translate(180.000000, 441.000000)">
                                <circle id="logo" stroke="#DDDDDD" stroke-width="1.17" fill="#FFFFFF" cx="14" cy="14" r="13.415"></circle>
                                <path d="M14.50744,15 L17,16.2216088 L17,16.2251309 L16.9778505,16.2143741 C16.0865308,16.8045693 15.2357618,16.9998096 14.5000568,17 C13.7642382,16.9998096 12.9134692,16.8045693 12.0221495,16.2143741 L12,16.2251309 L12,16.2216088 L14.50744,15 Z M11.9894153,10 L12,10 L11.9894153,12.7245732 L10.0478205,14 L10.0450861,13.9961718 C9.64930495,10.746715 11.9894153,10 11.9894153,10 L11.9894153,10 Z M16.9549139,13.9961718 L16.9520913,14 L15.0105847,12.7245732 L15,10 L15.0105847,10 C15.0105847,10 17.350695,10.746715 16.9549139,13.9961718 L16.9549139,13.9961718 Z M19.6661268,15.6494136 C19.0472709,17.274372 18.0102805,17.7335608 18.0102805,17.7335608 C21.0614132,14.4675651 19.1979169,10.7039024 19.1979169,10.7039024 C18.7474486,9.86026357 19.3208482,9.49255768 19.3208482,9.49255768 C18.0102805,9.83864034 18.4198067,10.9851154 18.4198067,10.9851154 C19.0784499,12.6417879 18.9458604,13.9877511 18.7220435,14.8203011 L18.2902616,14.5647034 L18.2969803,14.5540581 C18.2969803,14.5540581 19.3201134,10.2952787 15.1468517,8.80161215 L15.1432824,8 L14.2628169,8 L14.2628169,13.2779545 L18.3583935,15.7437796 C18.2837529,15.9039024 18.2047031,16.0545997 18.122294,16.1970913 L14.0087658,13.6800358 L9.87770604,16.1970913 C9.79529691,16.0545997 9.71624712,15.9039024 9.64160649,15.7437796 L13.7372881,13.2779545 L13.7372881,8 L12.8566126,8 L12.8532532,8.80161215 C8.67978164,10.2952787 9.70301967,14.5540581 9.70301967,14.5540581 L9.70984336,14.5647034 L9.27795649,14.8203011 C9.05424456,13.9877511 8.92165508,12.6417879 9.58019331,10.9851154 C9.58019331,10.9851154 9.98971948,9.83864034 8.67915176,9.49255768 C8.67915176,9.49255768 9.2524464,9.86026357 8.8020831,10.7039024 C8.8020831,10.7039024 6.93848184,14.4675651 9.98971948,17.7335608 C9.98971948,17.7335608 8.9527291,17.274372 8.33397821,15.6494136 C8.33397821,15.6494136 7.98292579,14.8570052 7,15.029991 C7,15.029991 7.3708936,15.2074125 7.58883165,15.9256365 C7.58883165,15.9256365 8.47433619,18.9017699 11.8941579,19.3558579 L11.8941579,21 L13.5734146,21 L13.5734146,18.5773105 C13.5734146,18.5773105 11.7920125,18.5623406 10.4319993,16.9815158 L10.8541231,16.7214825 C10.9327529,16.7999915 12.225789,18.0640082 13.9897645,18.0970529 L13.9897645,18.0978291 C13.9932288,18.0977183 13.9964832,18.0974965 14.0000525,18.0974965 C14.0035168,18.0974965 14.0067712,18.0977183 14.0102355,18.0978291 L14.0102355,18.0970529 C15.774211,18.0640082 17.067352,16.7999915 17.1458769,16.7214825 L17.5680007,16.9815158 C16.2080924,18.5623406 14.4265854,18.5773105 14.4265854,18.5773105 L14.4265854,21 L16.1057371,21 L16.1057371,19.3558579 C19.5255588,18.9017699 20.4112733,15.9256365 20.4112733,15.9256365 C20.6291064,15.2074125 21,15.029991 21,15.029991 C20.0171792,14.8570052 19.6661268,15.6494136 19.6661268,15.6494136 L19.6661268,15.6494136 Z" id="logo" fill="#0061AE"></path>
                            </g>
                        </g>
                    </g>
                </g>
            </g>
        </g>
    </g>
</svg>