<?xml version="1.0" encoding="UTF-8"?>
<svg width="28px" height="28px" viewBox="0 0 28 28" version="1.1" xmlns="http://www.w3.org/2000/svg" xmlns:xlink="http://www.w3.org/1999/xlink">
    <title>icon_bank_34</title>
    <g id="icon_bank_34" stroke="none" stroke-width="1" fill="none" fill-rule="evenodd">
        <circle id="logo" stroke="#DDDDDD" fill="#FFFFFF" cx="14" cy="14" r="13.5"></circle>
        <path d="M19.7145171,15.1040359 L18.9123744,15.1040359 L18.3733512,13.3259111 L18.3642862,13.3259111 L18.3938058,15.1040359 L17.8340957,15.1040359 L17.8340957,12.8820217 L18.6704067,12.8820217 L19.1692181,14.5901324 L19.1801427,14.5901324 L19.1515529,12.8820217 L19.7145171,12.8820217 L19.7145171,15.1040359 Z M17.2285953,14.488612 C17.229525,14.5301537 17.2253412,14.614404 17.2230168,14.6365751 C17.188616,15.005316 16.9247991,15.1934206 16.4408637,15.1934206 C15.9569283,15.1934206 15.6921817,15.005316 15.6582458,14.6365751 C15.6573161,14.614404 15.6531322,14.5301537 15.6535971,14.488612 L15.6535971,12.8813215 L16.2298103,12.8813215 L16.2298103,14.5394889 C16.2298103,14.5758962 16.2312049,14.6036685 16.2356212,14.6228057 C16.2428268,14.6594464 16.2793195,14.7798706 16.4408637,14.7798706 C16.6042675,14.7798706 16.6400629,14.6594464 16.649128,14.6228057 C16.6519172,14.6036685 16.652847,14.5751961 16.652847,14.5394889 L16.652847,12.8813215 L17.2285953,12.8813215 L17.2285953,14.488612 Z M15.1392123,14.6921196 C15.0771514,15.127374 14.6536498,15.2027558 14.3540376,15.2027558 C13.8559234,15.2027558 13.547711,14.988746 13.547711,14.5546586 L13.5491056,14.3765894 L14.1513518,14.3765894 L14.1513518,14.5980673 C14.1513518,14.7177915 14.2368889,14.7908395 14.3661243,14.7908395 C14.4818783,14.7908395 14.5499826,14.7439301 14.5741561,14.6480107 C14.5841509,14.6036685 14.5899619,14.538322 14.5699722,14.488612 C14.4584021,14.2097224 13.6748544,14.0734283 13.5797874,13.6209038 C13.5581707,13.517283 13.5572409,13.4306989 13.5749062,13.3196098 C13.6406861,12.9097939 14.0339708,12.8241433 14.3489239,12.8241433 C14.6322656,12.8241433 14.8375081,12.885289 14.9609325,13.0099141 C15.0520481,13.1020993 15.0990006,13.2290582 15.0990006,13.3870567 L15.0990006,13.5494894 L14.5355714,13.5494894 L14.5355714,13.4059605 C14.5355714,13.2839026 14.4597967,13.212955 14.3379994,13.212955 C14.2299158,13.212955 14.1646008,13.2610313 14.1432165,13.3564839 C14.1397299,13.3756211 14.1346163,13.4222972 14.1464706,13.4687398 C14.2073693,13.7172899 15.0448426,13.8696873 15.1371204,14.326646 C15.1480449,14.3854578 15.1647805,14.5112499 15.1392123,14.6921196 L15.1392123,14.6921196 Z M12.4503723,15.127374 L12.4364261,13.1774812 L12.4266637,13.1774812 L12.0654554,15.127374 L11.4887773,15.127374 L11.129661,13.1774812 L11.1192013,13.1774812 L11.1057199,15.127374 L10.5346203,15.127374 L10.5841296,12.8820217 L11.5034209,12.8820217 L11.7707243,14.5502244 L11.7839733,14.5502244 L12.0517416,12.8820217 L12.9701032,12.8820217 L13.0182178,15.127374 L12.4503723,15.127374 Z M9.49539113,15.127374 L9.20484394,13.1392068 L9.19438424,13.1392068 L8.8961666,15.127374 L8.28136873,15.127374 L8.69371331,12.8820217 L9.69691467,12.8820217 L10.1073997,15.127374 L9.49539113,15.127374 Z M24.5571253,12.2012512 C24.2702971,10.5512522 19.3296002,10.0347815 13.5209806,11.0506861 C11.0820113,11.4773054 8.87989595,12.1062654 7.16404043,12.814108 C7.42762485,12.8201759 7.62333744,12.8806214 7.74281045,12.999412 C7.83532067,13.0925307 7.88157579,13.2208899 7.88157579,13.3802887 L7.88157579,13.5431882 L7.3128006,13.5431882 L7.3128006,13.3989591 C7.3128006,13.2794684 7.24074489,13.2040865 7.11267169,13.2040865 C7.00505301,13.2040865 6.939738,13.2523963 6.91788885,13.3487824 C6.91300766,13.3756211 6.91114815,13.4211303 6.92114298,13.462672 C6.98227411,13.7133225 7.82788267,13.8675869 7.92016046,14.3303801 C7.93247966,14.3896587 7.94782055,14.5163842 7.92248483,14.6984209 C7.86925659,15.0708959 7.54384373,15.2146582 7.12894233,15.2146582 C6.55017232,15.2146582 6.31517775,14.939036 6.31517775,14.5586261 L6.31517775,14.3800901 L6.92555929,14.3800901 L6.92695392,14.6036685 C6.92695392,14.7296939 7.01783708,14.7992412 7.14126153,14.7992412 C7.25841016,14.7992412 7.32744418,14.7516316 7.35185014,14.6540786 C7.36138009,14.609503 7.36742347,14.543223 7.34696895,14.4932796 C7.23423664,14.2085555 6.44394826,14.0759955 6.34678928,13.6153027 C6.32517257,13.5121486 6.32377794,13.4239308 6.34144321,13.3130752 C6.35143804,13.2523963 6.36910331,13.2010526 6.39211464,13.1541431 C4.48914673,14.046823 3.37623475,15.0293542 3.52290298,15.8781585 C3.81089336,17.5295579 8.750893,18.0446283 14.5585828,17.0296572 C17.1114467,16.582267 19.4067695,15.9140991 21.1530744,15.1663485 C21.1282035,15.1679821 21.1037976,15.1698492 21.0782294,15.1698492 C20.6800635,15.1698492 20.3242013,15.0207191 20.2888708,14.6127703 C20.2814328,14.5390221 20.2812004,14.507049 20.2802706,14.4655073 L20.2812004,13.5263848 C20.2812004,13.4871769 20.2856167,13.4159959 20.2898005,13.378655 C20.3374503,12.9844756 20.6475223,12.8222763 21.0782294,12.8222763 C21.4106154,12.8222763 21.8187761,12.9174955 21.8641015,13.3795886 C21.8699124,13.4365334 21.8694475,13.4993127 21.8694475,13.5189166 L21.8694475,13.5198501 L21.8694475,13.6083013 L21.2943965,13.6083013 L21.2943965,13.4764414 L21.2943965,13.4759746 C21.2943965,13.4729407 21.2930019,13.4239308 21.287191,13.3926579 C21.2767313,13.3457484 21.2376817,13.236293 21.0728834,13.236293 C20.9111067,13.236293 20.8695003,13.3457484 20.8590406,13.3926579 C20.853927,13.4187965 20.8509053,13.4561373 20.8509053,13.4969789 L20.8509053,14.5163842 C20.8504404,14.5516247 20.851835,14.5793969 20.8553216,14.6004011 C20.857646,14.6155709 20.8876305,14.7565326 21.0754402,14.7565326 C21.2630174,14.7565326 21.2920722,14.6155709 21.2943965,14.6004011 C21.2992777,14.5726289 21.3002075,14.5394889 21.2992777,14.5163842 L21.2992777,14.2006206 L21.0724185,14.2006206 L21.0724185,13.8603521 L21.8731665,13.8603521 L21.8731665,14.4655073 C21.8731665,14.5065822 21.8727017,14.5364549 21.865961,14.6127703 C21.8555013,14.7194251 21.8222627,14.8102101 21.7701966,14.887459 C23.6231904,14.0045811 24.7014692,13.0372196 24.5571253,12.2012512 L24.5571253,12.2012512 Z" id="logo" fill="#14299E"></path>
    </g>
</svg>