<?xml version="1.0" encoding="UTF-8"?>
<svg width="28px" height="28px" viewBox="0 0 28 28" version="1.1" xmlns="http://www.w3.org/2000/svg" xmlns:xlink="http://www.w3.org/1999/xlink">
    <title>icon_bank_8</title>
    <g id="Page-1" stroke="none" stroke-width="1" fill="none" fill-rule="evenodd">
        <g id="02-7-Dropdown-Box4" transform="translate(-1668.000000, -746.000000)">
            <g id="03-Contents" transform="translate(600.000000, 196.000000)">
                <g id="img" transform="translate(888.000000, 44.000000)">
                    <g id="Group-3" transform="translate(0.000000, 1.000000)">
                        <g id="Group-5" transform="translate(0.000000, 240.000000)">
                            <g id="icon_bank_8" transform="translate(180.000000, 265.000000)">
                                <circle id="logo" stroke="#DDDDDD" stroke-width="1.17" fill="#FFFFFF" cx="14" cy="14" r="13.415"></circle>
                                <g id="Group-10" transform="translate(7.000000, 11.000000)" fill="#ED3124">
                                    <path d="M0.021169905,3.47633779 C-0.00586922592,3.48970648 -0.00717324074,3.5139027 0.0182166949,3.52995986 L2.33591127,5 L3,2 L0.021169905,3.47633779 Z" id="Fill-1"></path>
                                    <path d="M14.9731058,2 L14.3350942,2 C14.3019806,2 14.2507025,2.01100816 14.2211382,2.02437258 L11.0230209,3.47730257 C10.9935402,3.49070381 10.9922875,3.51470823 11.0197639,3.53079708 L11.0197639,3.53094435 L13.501115,4.97076763 C13.5288837,4.98674603 13.5785333,5 13.6118557,5 L14.2496168,5 C14.2826469,5 14.2871567,4.98689329 14.2598891,4.97091489 L11.7273851,3.50171197 L14.9797035,2.02437258 C15.0091842,2.01100816 15.0061777,2 14.9731058,2" id="Fill-3"></path>
                                    <path d="M12.9740522,2 L8.69534559,2 L8,5 L12.2780635,5 C12.3098966,5 12.3140768,4.98689329 12.2876697,4.97076763 L9.85416111,3.50171197 L12.9804831,2.02437258 C13.0088998,2.01100816 13.0058853,2 12.9740522,2" id="Fill-5"></path>
                                    <path d="M15.9730017,2 L15.3351556,2 C15.3018331,2 15.2506802,2.01100816 15.2212411,2.02437258 L12.0229076,3.47730257 C11.9936355,3.49070381 11.9922575,3.51470823 12.0196922,3.53079708 C12.0198593,3.53079708 12.0198593,3.53079708 12.0198593,3.53094435 L14.5010492,4.97076763 C14.5286509,4.98674603 14.5785929,5 14.6116231,5 L15.2496362,5 C15.2826664,5 15.2871345,4.98689329 15.259658,4.97091489 L12.7272316,3.50171197 L15.9796829,2.02437258 C16.0091637,2.01100816 16.0062407,2 15.9730017,2" id="Fill-7"></path>
                                    <path d="M13.9720581,0 L3.14226927,0 C2.53784167,0 2.11481149,0.374419223 2.01499537,0.837042156 C1.96033417,1.09089363 2.05829223,1.316804 2.25697383,1.4716921 L6.14820337,4 L6.15114168,3.99851151 L6.15170342,4 L13.9790149,0.0282387964 C14.0094351,0.0128010207 14.0064968,0 13.9720581,0" id="Fill-9"></path>
                                    <path d="M11.9823386,7.96619359 L11.9822161,7.96619359 L6.21766548,4 L6.21664505,4.00144581 L6.21435928,4 L1.50689597,6.52880455 C1.25635917,6.68269813 1.07166073,6.9089672 1.01986353,7.1633445 C0.924881587,7.62502525 1.17129584,8 1.74269772,8 L11.9724608,8 C12.0049922,8 12.0092372,7.98477648 11.9823386,7.96619359" id="Fill-12"></path>
                                </g>
                            </g>
                        </g>
                    </g>
                </g>
            </g>
        </g>
    </g>
</svg>