<?xml version="1.0" encoding="UTF-8"?>
<svg width="28px" height="28px" viewBox="0 0 28 28" version="1.1" xmlns="http://www.w3.org/2000/svg" xmlns:xlink="http://www.w3.org/1999/xlink">
    <title>icon_bank_7</title>
    <g id="Page-1" stroke="none" stroke-width="1" fill="none" fill-rule="evenodd">
        <g id="02-7-Dropdown-Box4" transform="translate(-1512.000000, -746.000000)">
            <g id="03-Contents" transform="translate(600.000000, 196.000000)">
                <g id="img" transform="translate(888.000000, 44.000000)">
                    <g id="Group-3" transform="translate(0.000000, 1.000000)">
                        <g id="Group-5" transform="translate(0.000000, 240.000000)">
                            <g id="icon_bank_7" transform="translate(24.000000, 265.000000)">
                                <circle id="logo" stroke="#DDDDDD" fill="#FFFFFF" cx="14" cy="14" r="13.5"></circle>
                                <g id="Group" transform="translate(7.000000, 8.000000)" fill="#41C8F4">
                                    <path d="M9.96526634,4 C9.64346513,4 9.33058759,4.03742579 9.03020319,4.10778626 C9.14840747,4.36187333 9.21403075,4.64372353 9.21403075,4.94204107 C9.21403075,5.34732831 9.09170785,5.72403586 8.88165843,6.03922903 C9.07097748,5.97580933 9.27333882,5.94083323 9.4839374,5.94083323 C10.5140033,5.94083323 11.3493959,6.76896382 11.3493959,7.79021146 C11.3493959,8.81173128 10.5140033,9.63986186 9.4839374,9.63986186 C8.87822625,9.63986186 8.34047227,9.35406495 8,8.91162411 L8,11.4926424 C8.58141131,11.815729 9.25164745,12 9.96526634,12 C12.1933004,12 14,10.209006 14,7.99925148 C14,5.79113009 12.1933004,4 9.96526634,4" id="Fill-1"></path>
                                    <path d="M4.51592386,9.52119924 C3.48526586,9.52119924 2.65008694,8.65157498 2.65008694,7.57855241 C2.65008694,7.20891922 2.75372929,6.86601512 2.92614624,6.5715664 C2.25981514,5.44823027 2.29989933,4.24013293 2.31554864,4 C0.947881395,4.67294395 0,6.11903018 0,7.79810252 C0,10.1189587 1.8069461,12 4.03477624,12 C4.74819255,12 5.4186419,11.8064643 6,11.4671336 L6,8.75634726 C5.65928434,9.22103307 5.12116775,9.52119924 4.51592386,9.52119924" id="Fill-4"></path>
                                    <path d="M12,3.37321441 C11.6341756,1.45892294 9.77793868,0 7.5341556,0 C5.0303106,0 3,1.81798672 3,4.06049225 C3,4.7629267 3.19939079,5.42391523 3.55083392,6 C3.92205133,5.63999732 4.4543094,5.41398967 5.04544093,5.41398967 C5.27509238,5.41398967 5.49620493,5.44846087 5.70278638,5.51096506 C5.47313492,5.20032191 5.33965844,4.82905238 5.33965844,4.42961572 C5.33965844,3.34410838 6.32253071,2.46408692 7.53475482,2.46408692 C8.28288225,2.46408692 8.93917907,2.80101938 9.33496455,3.31299041 C9.54394287,3.259607 10.6927994,3.00100597 12,3.37321441" id="Fill-7"></path>
                                </g>
                            </g>
                        </g>
                    </g>
                </g>
            </g>
        </g>
    </g>
</svg>