<?xml version="1.0" encoding="UTF-8"?>
<svg width="24px" height="24px" viewBox="0 0 24 24" version="1.1" xmlns="http://www.w3.org/2000/svg" xmlns:xlink="http://www.w3.org/1999/xlink">
    <title>btn/icon/reset</title>
    <g id="btn/icon/reset" stroke="none" stroke-width="1" fill="none" fill-rule="evenodd">
        <rect id="Rectangle" x="0" y="0" width="24" height="24"></rect>
        <path d="M12.25,4 L17.25,6.96704339 L12.25,10 L12.249,7.555 L12,7.55555556 C9.06645499,7.55555556 6.67479964,9.87566102 6.55987865,12.7810273 L6.55555556,13 C6.55555556,16.0068836 8.99311636,18.4444444 12,18.4444444 C15.0068836,18.4444444 17.4444444,16.0068836 17.4444444,13 L17.4444444,13 L17.4444444,12.2222222 L19,12.2222222 L19,13 C19,16.8659932 15.8659932,20 12,20 C8.13400675,20 5,16.8659932 5,13 C5,9.13400675 8.13400675,6 12,6 L12,6 L12.25,6 L12.25,4 Z" id="Combined-Shape" fill="#286EF1" fill-rule="nonzero"></path>
    </g>
</svg>